<svg xmlns="http://www.w3.org/2000/svg" xmlns:xlink="http://www.w3.org/1999/xlink" width="500" zoomAndPan="magnify" viewBox="0 0 375 374.999991" height="500" preserveAspectRatio="xMidYMid meet" version="1.0"><defs><g/><clipPath id="id1"><path d="M 124 119 L 200 119 L 200 238 L 124 238 Z M 124 119 " clip-rule="nonzero"/></clipPath><clipPath id="id2"><path d="M 171.589844 249.609375 L 100.445312 178.464844 L 179 99.90625 L 250.144531 171.050781 Z M 171.589844 249.609375 " clip-rule="nonzero"/></clipPath><clipPath id="id3"><path d="M 171.589844 249.609375 L 100.445312 178.464844 L 179 99.90625 L 250.144531 171.050781 Z M 171.589844 249.609375 " clip-rule="nonzero"/></clipPath><clipPath id="id4"><path d="M 156.621094 151.695312 C 155.300781 153.015625 154.085938 154.425781 152.972656 155.925781 C 151.859375 157.429688 150.867188 159.003906 149.988281 160.652344 C 149.109375 162.300781 148.355469 164.003906 147.726562 165.765625 C 147.101562 167.527344 146.605469 169.324219 146.246094 171.160156 C 145.882812 172.996094 145.660156 174.847656 145.570312 176.714844 C 145.484375 178.585938 145.53125 180.449219 145.71875 182.3125 C 145.90625 184.175781 146.230469 186.015625 146.6875 187.832031 C 147.148438 189.648438 147.738281 191.421875 148.457031 193.152344 C 149.175781 194.882812 150.019531 196.554688 150.984375 198.160156 C 151.949219 199.765625 153.027344 201.296875 154.21875 202.746094 C 155.410156 204.195312 156.699219 205.546875 158.089844 206.808594 C 159.476562 208.066406 160.953125 209.21875 162.511719 210.261719 C 164.070312 211.304688 165.695312 212.226562 167.386719 213.03125 C 169.082031 213.835938 170.824219 214.511719 172.617188 215.058594 C 174.410156 215.605469 176.230469 216.015625 178.082031 216.296875 C 179.933594 216.574219 181.796875 216.714844 183.667969 216.71875 L 183.660156 213.960938 C 182.503906 213.957031 181.351562 213.898438 180.199219 213.78125 C 179.046875 213.667969 177.90625 213.496094 176.773438 213.265625 C 175.636719 213.039062 174.515625 212.753906 173.410156 212.417969 C 172.300781 212.078125 171.214844 211.6875 170.144531 211.242188 C 169.074219 210.796875 168.03125 210.300781 167.011719 209.753906 C 165.988281 209.207031 164.996094 208.609375 164.035156 207.964844 C 163.074219 207.320312 162.144531 206.632812 161.25 205.894531 C 160.351562 205.160156 159.496094 204.382812 158.675781 203.5625 C 157.859375 202.742188 157.082031 201.886719 156.34375 200.992188 C 155.609375 200.09375 154.921875 199.167969 154.277344 198.203125 C 153.632812 197.242188 153.035156 196.25 152.488281 195.226562 C 151.941406 194.207031 151.445312 193.160156 151.003906 192.09375 C 150.558594 191.023438 150.167969 189.933594 149.828125 188.828125 C 149.492188 187.722656 149.207031 186.601562 148.980469 185.464844 C 148.753906 184.332031 148.582031 183.1875 148.464844 182.039062 C 148.351562 180.886719 148.292969 179.734375 148.289062 178.578125 C 148.289062 177.421875 148.339844 176.265625 148.453125 175.117188 C 148.5625 173.964844 148.730469 172.824219 148.953125 171.691406 C 149.179688 170.558594 149.457031 169.4375 149.789062 168.332031 C 150.125 167.226562 150.511719 166.140625 150.949219 165.074219 C 151.390625 164.003906 151.882812 162.960938 152.425781 161.945312 C 152.96875 160.925781 153.5625 159.9375 154.203125 158.976562 C 154.84375 158.015625 155.527344 157.089844 156.261719 156.199219 C 156.992188 155.304688 157.765625 154.453125 158.582031 153.636719 C 159.398438 152.820312 160.253906 152.046875 161.144531 151.316406 C 162.035156 150.585938 162.964844 149.898438 163.921875 149.257812 C 164.882812 148.617188 165.871094 148.027344 166.890625 147.484375 C 167.910156 146.941406 168.953125 146.449219 170.019531 146.007812 C 171.089844 145.570312 172.175781 145.183594 173.28125 144.851562 C 174.386719 144.515625 175.507812 144.238281 176.640625 144.015625 C 177.773438 143.792969 178.914062 143.625 180.066406 143.515625 C 181.214844 143.40625 182.371094 143.351562 183.527344 143.351562 L 199.101562 143.386719 L 199.09375 140.628906 L 183.515625 140.617188 C 181.015625 140.601562 178.542969 140.835938 176.089844 141.3125 C 173.636719 141.789062 171.257812 142.503906 168.949219 143.457031 C 166.640625 144.40625 164.449219 145.574219 162.375 146.960938 C 160.300781 148.347656 158.382812 149.925781 156.621094 151.695312 Z M 166.40625 161.480469 C 165.566406 162.324219 164.792969 163.222656 164.082031 164.179688 C 163.375 165.132812 162.742188 166.136719 162.183594 167.1875 C 161.621094 168.238281 161.140625 169.324219 160.742188 170.445312 C 160.34375 171.566406 160.027344 172.714844 159.796875 173.882812 C 159.570312 175.050781 159.425781 176.230469 159.371094 177.421875 C 159.3125 178.613281 159.34375 179.800781 159.464844 180.988281 C 159.582031 182.175781 159.789062 183.347656 160.082031 184.503906 C 160.375 185.660156 160.75 186.792969 161.207031 187.894531 C 161.664062 188.996094 162.203125 190.058594 162.816406 191.082031 C 163.433594 192.105469 164.121094 193.082031 164.878906 194.003906 C 165.636719 194.925781 166.457031 195.789062 167.34375 196.59375 C 168.226562 197.394531 169.167969 198.128906 170.160156 198.792969 C 171.152344 199.457031 172.1875 200.046875 173.265625 200.558594 C 174.34375 201.070312 175.457031 201.5 176.597656 201.851562 C 177.738281 202.199219 178.898438 202.460938 180.078125 202.640625 C 181.257812 202.816406 182.445312 202.90625 183.636719 202.910156 L 183.632812 200.148438 C 182.925781 200.148438 182.226562 200.113281 181.523438 200.042969 C 180.824219 199.972656 180.128906 199.867188 179.4375 199.730469 C 178.746094 199.589844 178.066406 199.417969 177.390625 199.210938 C 176.714844 199.007812 176.054688 198.769531 175.402344 198.5 C 174.753906 198.226562 174.117188 197.925781 173.496094 197.59375 C 172.871094 197.261719 172.269531 196.898438 171.683594 196.503906 C 171.097656 196.113281 170.53125 195.691406 169.984375 195.246094 C 169.441406 194.796875 168.917969 194.324219 168.421875 193.824219 C 167.921875 193.328125 167.449219 192.804688 167 192.261719 C 166.550781 191.714844 166.132812 191.148438 165.738281 190.5625 C 165.347656 189.976562 164.984375 189.375 164.652344 188.753906 C 164.320312 188.128906 164.015625 187.496094 163.746094 186.84375 C 163.476562 186.191406 163.238281 185.53125 163.03125 184.855469 C 162.824219 184.183594 162.652344 183.5 162.515625 182.808594 C 162.375 182.117188 162.269531 181.421875 162.199219 180.722656 C 162.128906 180.023438 162.09375 179.320312 162.09375 178.617188 C 162.089844 177.910156 162.125 177.210938 162.191406 176.507812 C 162.257812 175.808594 162.363281 175.113281 162.496094 174.421875 C 162.632812 173.734375 162.804688 173.050781 163.007812 172.378906 C 163.207031 171.707031 163.445312 171.042969 163.710938 170.394531 C 163.980469 169.746094 164.28125 169.109375 164.609375 168.488281 C 164.941406 167.871094 165.300781 167.269531 165.691406 166.683594 C 166.082031 166.097656 166.5 165.535156 166.945312 164.992188 C 167.390625 164.449219 167.863281 163.929688 168.359375 163.433594 C 168.855469 162.9375 169.375 162.464844 169.917969 162.019531 C 170.460938 161.574219 171.027344 161.15625 171.609375 160.765625 C 172.195312 160.378906 172.796875 160.019531 173.417969 159.6875 C 174.039062 159.355469 174.671875 159.058594 175.324219 158.789062 C 175.972656 158.523438 176.632812 158.285156 177.308594 158.085938 C 177.980469 157.882812 178.660156 157.710938 179.351562 157.578125 C 180.042969 157.441406 180.738281 157.339844 181.4375 157.273438 C 182.136719 157.207031 182.839844 157.171875 183.542969 157.175781 L 199.140625 157.207031 L 199.132812 154.449219 L 183.535156 154.417969 C 181.945312 154.410156 180.367188 154.558594 178.804688 154.863281 C 177.242188 155.167969 175.726562 155.625 174.257812 156.230469 C 172.789062 156.835938 171.390625 157.582031 170.070312 158.464844 C 168.75 159.351562 167.527344 160.355469 166.40625 161.480469 Z M 161.507812 156.578125 C 160.425781 157.660156 159.429688 158.816406 158.523438 160.042969 C 157.613281 161.273438 156.800781 162.558594 156.082031 163.910156 C 155.363281 165.257812 154.746094 166.652344 154.234375 168.09375 C 153.722656 169.535156 153.316406 171.003906 153.023438 172.507812 C 152.726562 174.007812 152.542969 175.523438 152.472656 177.050781 C 152.398438 178.582031 152.441406 180.109375 152.59375 181.632812 C 152.746094 183.15625 153.011719 184.660156 153.386719 186.148438 C 153.761719 187.632812 154.242188 189.085938 154.832031 190.5 C 155.421875 191.917969 156.109375 193.28125 156.898438 194.597656 C 157.6875 195.910156 158.570312 197.164062 159.542969 198.347656 C 160.515625 199.535156 161.570312 200.644531 162.707031 201.671875 C 163.84375 202.703125 165.050781 203.648438 166.324219 204.5 C 167.597656 205.355469 168.929688 206.109375 170.3125 206.769531 C 171.699219 207.425781 173.125 207.980469 174.589844 208.429688 C 176.058594 208.878906 177.546875 209.214844 179.0625 209.445312 C 180.578125 209.671875 182.101562 209.789062 183.632812 209.792969 L 183.644531 207.054688 C 182.730469 207.03125 181.820312 206.960938 180.910156 206.847656 C 180 206.734375 179.097656 206.578125 178.203125 206.378906 C 177.308594 206.179688 176.425781 205.9375 175.554688 205.652344 C 174.683594 205.367188 173.828125 205.039062 172.988281 204.671875 C 172.148438 204.304688 171.328125 203.898438 170.527344 203.449219 C 169.726562 203.003906 168.949219 202.519531 168.195312 201.996094 C 167.441406 201.476562 166.714844 200.917969 166.011719 200.328125 C 165.3125 199.734375 164.640625 199.109375 164 198.453125 C 163.359375 197.796875 162.753906 197.109375 162.175781 196.394531 C 161.601562 195.679688 161.0625 194.9375 160.5625 194.171875 C 160.058594 193.40625 159.59375 192.617188 159.164062 191.804688 C 158.738281 190.992188 158.351562 190.164062 158.003906 189.3125 C 157.65625 188.464844 157.351562 187.601562 157.089844 186.722656 C 156.824219 185.847656 156.605469 184.957031 156.425781 184.058594 C 156.25 183.160156 156.117188 182.253906 156.027344 181.34375 C 155.933594 180.433594 155.890625 179.519531 155.886719 178.601562 C 155.886719 177.6875 155.929688 176.773438 156.015625 175.863281 C 156.101562 174.953125 156.230469 174.046875 156.40625 173.148438 C 156.578125 172.25 156.796875 171.363281 157.054688 170.488281 C 157.316406 169.609375 157.617188 168.746094 157.960938 167.902344 C 158.304688 167.054688 158.6875 166.226562 159.113281 165.414062 C 159.535156 164.605469 159.996094 163.816406 160.496094 163.054688 C 160.996094 162.289062 161.53125 161.550781 162.105469 160.835938 C 162.675781 160.125 163.28125 159.441406 163.917969 158.785156 C 164.558594 158.132812 165.226562 157.511719 165.925781 156.921875 C 166.621094 156.332031 167.347656 155.777344 168.101562 155.261719 C 168.851562 154.742188 169.628906 154.261719 170.425781 153.816406 C 171.226562 153.375 172.042969 152.96875 172.882812 152.605469 C 173.722656 152.242188 174.574219 151.917969 175.445312 151.636719 C 176.316406 151.355469 177.199219 151.117188 178.089844 150.921875 C 178.984375 150.722656 179.886719 150.570312 180.792969 150.464844 C 181.703125 150.355469 182.613281 150.289062 183.53125 150.269531 L 199.117188 150.300781 L 199.109375 147.542969 L 183.523438 147.511719 C 181.476562 147.5 179.449219 147.691406 177.441406 148.085938 C 175.4375 148.476562 173.488281 149.0625 171.601562 149.84375 C 169.710938 150.621094 167.917969 151.578125 166.222656 152.714844 C 164.523438 153.851562 162.957031 155.140625 161.515625 156.589844 Z M 146.824219 141.898438 C 145.625 143.097656 144.492188 144.351562 143.414062 145.664062 C 142.339844 146.972656 141.332031 148.335938 140.394531 149.746094 C 139.453125 151.15625 138.585938 152.609375 137.789062 154.105469 C 136.988281 155.601562 136.269531 157.132812 135.621094 158.703125 C 134.976562 160.269531 134.40625 161.867188 133.917969 163.492188 C 133.429688 165.113281 133.019531 166.761719 132.695312 168.425781 C 132.367188 170.089844 132.121094 171.769531 131.957031 173.457031 C 131.796875 175.148438 131.71875 176.84375 131.722656 178.542969 C 131.726562 180.242188 131.8125 181.9375 131.984375 183.625 C 132.152344 185.316406 132.40625 186.996094 132.742188 188.664062 C 133.078125 190.332031 133.492188 191.976562 133.988281 193.605469 C 134.488281 195.230469 135.0625 196.828125 135.714844 198.402344 C 136.371094 199.972656 137.097656 201.507812 137.902344 203.007812 C 138.707031 204.507812 139.582031 205.964844 140.53125 207.378906 C 141.476562 208.792969 142.492188 210.160156 143.570312 211.472656 C 144.652344 212.789062 145.792969 214.050781 147 215.253906 C 149.40625 217.675781 152.023438 219.835938 154.859375 221.738281 C 157.691406 223.644531 160.683594 225.25 163.832031 226.5625 C 166.984375 227.871094 170.230469 228.863281 173.574219 229.53125 C 176.917969 230.195312 180.289062 230.53125 183.699219 230.527344 L 183.679688 227.78125 C 182.070312 227.777344 180.464844 227.695312 178.863281 227.535156 C 177.265625 227.375 175.675781 227.136719 174.097656 226.816406 C 172.519531 226.5 170.960938 226.105469 169.417969 225.636719 C 167.878906 225.167969 166.367188 224.621094 164.878906 224.003906 C 163.390625 223.386719 161.9375 222.695312 160.519531 221.933594 C 159.097656 221.171875 157.71875 220.34375 156.378906 219.449219 C 155.039062 218.550781 153.746094 217.59375 152.503906 216.570312 C 151.257812 215.546875 150.0625 214.464844 148.925781 213.324219 C 147.785156 212.1875 146.703125 210.992188 145.679688 209.746094 C 144.65625 208.503906 143.699219 207.210938 142.800781 205.871094 C 141.90625 204.53125 141.078125 203.152344 140.316406 201.730469 C 139.554688 200.3125 138.863281 198.859375 138.246094 197.371094 C 137.628906 195.882812 137.082031 194.371094 136.613281 192.832031 C 136.144531 191.289062 135.75 189.730469 135.433594 188.152344 C 135.113281 186.574219 134.875 184.984375 134.714844 183.382812 C 134.554688 181.785156 134.472656 180.179688 134.46875 178.570312 C 134.464844 176.960938 134.539062 175.359375 134.695312 173.757812 C 134.847656 172.15625 135.082031 170.570312 135.390625 168.992188 C 135.703125 167.414062 136.089844 165.859375 136.554688 164.320312 C 137.015625 162.78125 137.554688 161.269531 138.167969 159.785156 C 138.78125 158.300781 139.464844 156.847656 140.21875 155.433594 C 140.976562 154.015625 141.796875 152.640625 142.6875 151.304688 C 143.578125 149.96875 144.535156 148.679688 145.550781 147.4375 C 146.570312 146.199219 147.644531 145.011719 148.78125 143.875 C 149.914062 142.738281 151.101562 141.664062 152.34375 140.644531 C 153.585938 139.628906 154.875 138.671875 156.210938 137.78125 C 157.546875 136.890625 158.921875 136.070312 160.339844 135.3125 C 161.753906 134.558594 163.207031 133.875 164.691406 133.261719 C 166.175781 132.648438 167.6875 132.113281 169.226562 131.648438 C 170.761719 131.183594 172.320312 130.796875 173.898438 130.488281 C 175.472656 130.175781 177.0625 129.945312 178.664062 129.789062 C 180.261719 129.636719 181.867188 129.558594 183.476562 129.5625 L 199.046875 129.585938 L 199.039062 126.828125 L 183.476562 126.792969 C 180.070312 126.777344 176.699219 127.097656 173.355469 127.75 C 170.015625 128.402344 166.773438 129.378906 163.628906 130.675781 C 160.484375 131.972656 157.496094 133.566406 154.671875 135.457031 C 151.84375 137.347656 149.234375 139.5 146.835938 141.910156 Z M 171.289062 166.363281 C 170.6875 166.964844 170.132812 167.609375 169.628906 168.292969 C 169.121094 168.976562 168.667969 169.695312 168.269531 170.445312 C 167.867188 171.195312 167.523438 171.972656 167.238281 172.773438 C 166.953125 173.578125 166.726562 174.398438 166.5625 175.234375 C 166.398438 176.070312 166.296875 176.914062 166.257812 177.765625 C 166.21875 178.617188 166.238281 179.464844 166.324219 180.316406 C 166.410156 181.164062 166.558594 182 166.765625 182.828125 C 166.976562 183.65625 167.242188 184.464844 167.570312 185.253906 C 167.898438 186.042969 168.285156 186.800781 168.722656 187.535156 C 169.164062 188.265625 169.652344 188.964844 170.195312 189.625 C 170.738281 190.285156 171.328125 190.902344 171.960938 191.476562 C 172.59375 192.050781 173.261719 192.574219 173.972656 193.050781 C 174.683594 193.523438 175.425781 193.945312 176.195312 194.3125 C 176.96875 194.679688 177.761719 194.984375 178.578125 195.234375 C 179.394531 195.484375 180.222656 195.671875 181.066406 195.800781 C 181.910156 195.925781 182.761719 195.992188 183.613281 195.992188 L 183.609375 193.234375 C 182.652344 193.234375 181.703125 193.140625 180.765625 192.949219 C 179.824219 192.761719 178.910156 192.484375 178.027344 192.113281 C 177.140625 191.746094 176.300781 191.296875 175.503906 190.761719 C 174.703125 190.226562 173.96875 189.621094 173.289062 188.941406 C 172.609375 188.265625 172.003906 187.527344 171.46875 186.730469 C 170.9375 185.933594 170.484375 185.089844 170.117188 184.207031 C 169.75 183.320312 169.46875 182.40625 169.28125 181.46875 C 169.09375 180.527344 168.996094 179.578125 168.996094 178.621094 C 168.992188 177.664062 169.085938 176.714844 169.269531 175.777344 C 169.453125 174.839844 169.730469 173.925781 170.09375 173.042969 C 170.457031 172.160156 170.90625 171.320312 171.4375 170.523438 C 171.964844 169.730469 172.570312 168.996094 173.246094 168.320312 C 173.921875 167.644531 174.65625 167.039062 175.453125 166.511719 C 176.246094 165.980469 177.085938 165.53125 177.96875 165.167969 C 178.855469 164.804688 179.765625 164.527344 180.703125 164.34375 C 181.644531 164.160156 182.589844 164.066406 183.546875 164.070312 L 199.15625 164.121094 L 199.144531 161.363281 L 183.539062 161.332031 C 181.242188 161.320312 179.03125 161.753906 176.910156 162.625 C 174.789062 163.5 172.917969 164.75 171.300781 166.375 Z M 151.71875 146.792969 C 150.15625 148.351562 148.71875 150.019531 147.40625 151.792969 C 146.089844 153.566406 144.914062 155.429688 143.875 157.375 C 142.835938 159.324219 141.945312 161.339844 141.207031 163.417969 C 140.464844 165.5 139.878906 167.625 139.453125 169.792969 C 139.023438 171.960938 138.757812 174.148438 138.65625 176.359375 C 138.550781 178.566406 138.609375 180.773438 138.832031 182.976562 C 139.050781 185.175781 139.433594 187.351562 139.976562 189.496094 C 140.519531 191.644531 141.214844 193.738281 142.066406 195.785156 C 142.914062 197.828125 143.910156 199.800781 145.054688 201.703125 C 146.195312 203.601562 147.46875 205.40625 148.875 207.121094 C 150.28125 208.832031 151.804688 210.433594 153.449219 211.921875 C 155.089844 213.410156 156.832031 214.769531 158.675781 216.003906 C 160.515625 217.234375 162.4375 218.324219 164.441406 219.273438 C 166.441406 220.222656 168.5 221.019531 170.621094 221.667969 C 172.738281 222.3125 174.890625 222.800781 177.078125 223.128906 C 179.269531 223.457031 181.46875 223.621094 183.679688 223.625 L 183.675781 220.867188 C 182.300781 220.851562 180.929688 220.769531 179.5625 220.621094 C 178.195312 220.46875 176.839844 220.253906 175.492188 219.972656 C 174.144531 219.691406 172.816406 219.347656 171.503906 218.933594 C 170.191406 218.523438 168.898438 218.050781 167.632812 217.511719 C 166.363281 216.976562 165.125 216.378906 163.917969 215.71875 C 162.707031 215.0625 161.53125 214.347656 160.394531 213.574219 C 159.253906 212.800781 158.152344 211.976562 157.09375 211.097656 C 156.03125 210.21875 155.019531 209.289062 154.046875 208.308594 C 153.078125 207.332031 152.160156 206.308594 151.289062 205.242188 C 150.417969 204.171875 149.601562 203.066406 148.839844 201.917969 C 148.078125 200.773438 147.375 199.589844 146.726562 198.375 C 146.082031 197.160156 145.496094 195.917969 144.96875 194.644531 C 144.441406 193.371094 143.980469 192.078125 143.582031 190.761719 C 143.179688 189.445312 142.847656 188.113281 142.578125 186.761719 C 142.308594 185.414062 142.105469 184.054688 141.96875 182.6875 C 141.832031 181.320312 141.761719 179.949219 141.757812 178.574219 C 141.753906 177.199219 141.820312 175.828125 141.949219 174.460938 C 142.082031 173.09375 142.28125 171.734375 142.542969 170.386719 C 142.808594 169.039062 143.136719 167.707031 143.53125 166.394531 C 143.925781 165.078125 144.382812 163.785156 144.902344 162.515625 C 145.421875 161.246094 146.003906 160.003906 146.644531 158.792969 C 147.289062 157.578125 147.988281 156.402344 148.746094 155.257812 C 149.503906 154.113281 150.3125 153.007812 151.179688 151.945312 C 152.046875 150.882812 152.960938 149.863281 153.925781 148.886719 C 154.890625 147.914062 155.902344 146.988281 156.960938 146.113281 C 158.015625 145.238281 159.113281 144.417969 160.25 143.652344 C 161.386719 142.882812 162.558594 142.171875 163.765625 141.519531 C 164.972656 140.867188 166.207031 140.277344 167.472656 139.742188 C 168.738281 139.210938 170.027344 138.742188 171.335938 138.335938 C 172.648438 137.933594 173.976562 137.589844 175.324219 137.316406 C 176.667969 137.039062 178.023438 136.828125 179.390625 136.6875 C 180.757812 136.542969 182.125 136.46875 183.5 136.457031 L 199.070312 136.492188 L 199.058594 133.734375 L 183.492188 133.699219 C 180.539062 133.6875 177.613281 133.960938 174.71875 134.527344 C 171.824219 135.09375 169.011719 135.941406 166.285156 137.066406 C 163.558594 138.191406 160.972656 139.570312 158.523438 141.210938 C 156.070312 142.847656 153.808594 144.714844 151.730469 146.804688 Z M 124.816406 178.539062 C 124.820312 180.460938 124.917969 182.382812 125.109375 184.300781 C 125.300781 186.214844 125.589844 188.117188 125.96875 190.007812 C 126.347656 191.894531 126.816406 193.761719 127.378906 195.605469 C 127.945312 197.449219 128.59375 199.257812 129.335938 201.039062 C 130.074219 202.820312 130.902344 204.558594 131.8125 206.257812 C 132.722656 207.957031 133.714844 209.609375 134.789062 211.210938 C 135.859375 212.816406 137.007812 214.363281 138.234375 215.851562 C 139.457031 217.34375 140.75 218.769531 142.117188 220.132812 C 143.480469 221.5 144.90625 222.792969 146.398438 224.015625 C 147.886719 225.242188 149.433594 226.390625 151.039062 227.460938 C 152.640625 228.535156 154.292969 229.527344 155.992188 230.4375 C 157.691406 231.347656 159.429688 232.175781 161.210938 232.914062 C 162.988281 233.65625 164.800781 234.304688 166.644531 234.867188 C 168.488281 235.429688 170.355469 235.902344 172.242188 236.28125 C 174.132812 236.660156 176.035156 236.945312 177.949219 237.140625 C 179.867188 237.332031 181.785156 237.429688 183.710938 237.433594 L 183.703125 234.675781 C 181.867188 234.671875 180.039062 234.578125 178.210938 234.394531 C 176.386719 234.210938 174.574219 233.941406 172.773438 233.578125 C 170.972656 233.21875 169.195312 232.769531 167.4375 232.230469 C 165.679688 231.695312 163.953125 231.074219 162.257812 230.371094 C 160.5625 229.664062 158.902344 228.878906 157.285156 228.007812 C 155.664062 227.140625 154.089844 226.195312 152.5625 225.171875 C 151.035156 224.152344 149.5625 223.054688 148.140625 221.890625 C 146.722656 220.722656 145.359375 219.488281 144.058594 218.1875 C 142.761719 216.890625 141.527344 215.527344 140.359375 214.109375 C 139.195312 212.6875 138.097656 211.214844 137.078125 209.6875 C 136.054688 208.160156 135.109375 206.585938 134.242188 204.964844 C 133.371094 203.34375 132.585938 201.6875 131.878906 199.992188 C 131.175781 198.292969 130.554688 196.566406 130.019531 194.8125 C 129.480469 193.054688 129.03125 191.277344 128.671875 189.476562 C 128.308594 187.675781 128.039062 185.863281 127.855469 184.035156 C 127.671875 182.210938 127.578125 180.378906 127.574219 178.546875 C 127.570312 176.710938 127.65625 174.882812 127.832031 173.054688 C 128.007812 171.230469 128.273438 169.417969 128.625 167.621094 C 128.980469 165.820312 129.421875 164.042969 129.949219 162.289062 C 130.480469 160.535156 131.09375 158.8125 131.792969 157.117188 C 132.488281 155.425781 133.269531 153.769531 134.132812 152.152344 C 134.992188 150.539062 135.929688 148.96875 136.949219 147.445312 C 137.964844 145.921875 139.050781 144.453125 140.210938 143.035156 C 141.375 141.621094 142.601562 140.265625 143.894531 138.96875 C 145.191406 137.675781 146.546875 136.449219 147.960938 135.285156 C 149.378906 134.125 150.847656 133.039062 152.371094 132.019531 C 153.894531 131.003906 155.464844 130.066406 157.078125 129.203125 C 158.695312 128.34375 160.351562 127.5625 162.042969 126.863281 C 163.738281 126.167969 165.460938 125.554688 167.214844 125.023438 C 168.972656 124.496094 170.746094 124.054688 172.546875 123.699219 C 174.34375 123.34375 176.15625 123.082031 177.980469 122.90625 C 179.808594 122.730469 181.636719 122.644531 183.472656 122.648438 L 199.023438 122.679688 L 199.015625 119.921875 L 183.464844 119.890625 C 181.539062 119.886719 179.617188 119.976562 177.703125 120.160156 C 175.789062 120.34375 173.886719 120.625 172 120.996094 C 170.113281 121.367188 168.25 121.828125 166.410156 122.382812 C 164.566406 122.941406 162.757812 123.582031 160.984375 124.316406 C 159.207031 125.050781 157.46875 125.867188 155.773438 126.773438 C 154.078125 127.675781 152.433594 128.660156 150.832031 129.726562 C 149.234375 130.792969 147.695312 131.933594 146.207031 133.152344 C 144.722656 134.371094 143.300781 135.660156 141.941406 137.015625 C 140.585938 138.375 139.296875 139.796875 138.078125 141.28125 C 136.859375 142.765625 135.71875 144.308594 134.652344 145.90625 C 133.585938 147.503906 132.601562 149.152344 131.699219 150.847656 C 130.792969 152.542969 129.976562 154.28125 129.242188 156.054688 C 128.507812 157.832031 127.867188 159.640625 127.3125 161.484375 C 126.757812 163.324219 126.292969 165.1875 125.921875 167.074219 C 125.550781 168.960938 125.269531 170.863281 125.085938 172.777344 C 124.902344 174.691406 124.8125 176.613281 124.816406 178.539062 Z M 124.816406 178.539062 " clip-rule="nonzero"/></clipPath><linearGradient x1="-4011.405825" gradientTransform="matrix(0.364125, 0.000760772, 0.000760772, 0.364125, 1582.951387, -1136.179233)" y1="3456.599618" x2="-3758.99783" gradientUnits="userSpaceOnUse" y2="3737.052017" id="id5"><stop stop-opacity="1" stop-color="rgb(63.09967%, 0%, 92.89856%)" offset="0"/><stop stop-opacity="1" stop-color="rgb(63.09967%, 0%, 92.89856%)" offset="0.25"/><stop stop-opacity="1" stop-color="rgb(63.09967%, 0%, 92.89856%)" offset="0.363197"/><stop stop-opacity="1" stop-color="rgb(63.09967%, 0%, 92.89856%)" offset="0.375"/><stop stop-opacity="1" stop-color="rgb(63.09967%, 0%, 92.89856%)" offset="0.4375"/><stop stop-opacity="1" stop-color="rgb(62.988281%, 0.038147%, 92.910767%)" offset="0.46875"/><stop stop-opacity="1" stop-color="rgb(61.730957%, 0.476074%, 93.052673%)" offset="0.472656"/><stop stop-opacity="1" stop-color="rgb(60.585022%, 0.875854%, 93.182373%)" offset="0.476562"/><stop stop-opacity="1" stop-color="rgb(59.437561%, 1.275635%, 93.310547%)" offset="0.480469"/><stop stop-opacity="1" stop-color="rgb(58.291626%, 1.675415%, 93.440247%)" offset="0.484375"/><stop stop-opacity="1" stop-color="rgb(57.145691%, 2.075195%, 93.56842%)" offset="0.488281"/><stop stop-opacity="1" stop-color="rgb(55.999756%, 2.474976%, 93.69812%)" offset="0.492187"/><stop stop-opacity="1" stop-color="rgb(54.852295%, 2.874756%, 93.826294%)" offset="0.496094"/><stop stop-opacity="1" stop-color="rgb(53.70636%, 3.274536%, 93.955994%)" offset="0.5"/><stop stop-opacity="1" stop-color="rgb(52.560425%, 3.674316%, 94.084167%)" offset="0.503906"/><stop stop-opacity="1" stop-color="rgb(51.41449%, 4.074097%, 94.213867%)" offset="0.507812"/><stop stop-opacity="1" stop-color="rgb(50.267029%, 4.472351%, 94.342041%)" offset="0.511719"/><stop stop-opacity="1" stop-color="rgb(49.121094%, 4.872131%, 94.471741%)" offset="0.515625"/><stop stop-opacity="1" stop-color="rgb(47.973633%, 5.271912%, 94.599915%)" offset="0.519531"/><stop stop-opacity="1" stop-color="rgb(46.827698%, 5.671692%, 94.729614%)" offset="0.523437"/><stop stop-opacity="1" stop-color="rgb(45.681763%, 6.071472%, 94.857788%)" offset="0.527344"/><stop stop-opacity="1" stop-color="rgb(44.535828%, 6.471252%, 94.987488%)" offset="0.53125"/><stop stop-opacity="1" stop-color="rgb(43.388367%, 6.871033%, 95.115662%)" offset="0.535156"/><stop stop-opacity="1" stop-color="rgb(42.242432%, 7.270813%, 95.245361%)" offset="0.539062"/><stop stop-opacity="1" stop-color="rgb(41.096497%, 7.670593%, 95.373535%)" offset="0.542969"/><stop stop-opacity="1" stop-color="rgb(39.950562%, 8.070374%, 95.503235%)" offset="0.546875"/><stop stop-opacity="1" stop-color="rgb(38.803101%, 8.470154%, 95.632935%)" offset="0.550781"/><stop stop-opacity="1" stop-color="rgb(37.657166%, 8.869934%, 95.762634%)" offset="0.554687"/><stop stop-opacity="1" stop-color="rgb(36.509705%, 9.269714%, 95.890808%)" offset="0.558594"/><stop stop-opacity="1" stop-color="rgb(35.36377%, 9.669495%, 96.020508%)" offset="0.5625"/><stop stop-opacity="1" stop-color="rgb(34.217834%, 10.069275%, 96.148682%)" offset="0.566406"/><stop stop-opacity="1" stop-color="rgb(33.071899%, 10.469055%, 96.278381%)" offset="0.570312"/><stop stop-opacity="1" stop-color="rgb(31.924438%, 10.86731%, 96.406555%)" offset="0.574219"/><stop stop-opacity="1" stop-color="rgb(30.778503%, 11.26709%, 96.536255%)" offset="0.578125"/><stop stop-opacity="1" stop-color="rgb(29.632568%, 11.66687%, 96.664429%)" offset="0.582031"/><stop stop-opacity="1" stop-color="rgb(28.486633%, 12.06665%, 96.794128%)" offset="0.585938"/><stop stop-opacity="1" stop-color="rgb(27.339172%, 12.466431%, 96.922302%)" offset="0.589844"/><stop stop-opacity="1" stop-color="rgb(26.193237%, 12.866211%, 97.052002%)" offset="0.59375"/><stop stop-opacity="1" stop-color="rgb(25.045776%, 13.265991%, 97.180176%)" offset="0.597656"/><stop stop-opacity="1" stop-color="rgb(23.899841%, 13.665771%, 97.309875%)" offset="0.601562"/><stop stop-opacity="1" stop-color="rgb(22.753906%, 14.065552%, 97.438049%)" offset="0.605469"/><stop stop-opacity="1" stop-color="rgb(21.607971%, 14.465332%, 97.567749%)" offset="0.609375"/><stop stop-opacity="1" stop-color="rgb(20.46051%, 14.865112%, 97.695923%)" offset="0.613281"/><stop stop-opacity="1" stop-color="rgb(19.314575%, 15.264893%, 97.825623%)" offset="0.617187"/><stop stop-opacity="1" stop-color="rgb(18.16864%, 15.664673%, 97.953796%)" offset="0.621094"/><stop stop-opacity="1" stop-color="rgb(17.022705%, 16.064453%, 98.083496%)" offset="0.625"/><stop stop-opacity="1" stop-color="rgb(15.875244%, 16.464233%, 98.21167%)" offset="0.628906"/><stop stop-opacity="1" stop-color="rgb(14.729309%, 16.864014%, 98.34137%)" offset="0.632812"/><stop stop-opacity="1" stop-color="rgb(13.581848%, 17.263794%, 98.469543%)" offset="0.636719"/><stop stop-opacity="1" stop-color="rgb(12.435913%, 17.663574%, 98.599243%)" offset="0.640625"/><stop stop-opacity="1" stop-color="rgb(11.289978%, 18.061829%, 98.727417%)" offset="0.644531"/><stop stop-opacity="1" stop-color="rgb(10.144043%, 18.461609%, 98.857117%)" offset="0.648438"/><stop stop-opacity="1" stop-color="rgb(8.996582%, 18.861389%, 98.985291%)" offset="0.652344"/><stop stop-opacity="1" stop-color="rgb(7.850647%, 19.261169%, 99.11499%)" offset="0.65625"/><stop stop-opacity="1" stop-color="rgb(6.704712%, 19.66095%, 99.24469%)" offset="0.660156"/><stop stop-opacity="1" stop-color="rgb(5.558777%, 20.06073%, 99.37439%)" offset="0.664062"/><stop stop-opacity="1" stop-color="rgb(4.411316%, 20.46051%, 99.502563%)" offset="0.667969"/><stop stop-opacity="1" stop-color="rgb(3.265381%, 20.860291%, 99.632263%)" offset="0.671875"/><stop stop-opacity="1" stop-color="rgb(2.11792%, 21.260071%, 99.760437%)" offset="0.675781"/><stop stop-opacity="1" stop-color="rgb(0.971985%, 21.659851%, 99.890137%)" offset="0.679688"/><stop stop-opacity="1" stop-color="rgb(0.485229%, 21.829224%, 99.945068%)" offset="0.683594"/><stop stop-opacity="1" stop-color="rgb(0%, 21.998596%, 100%)" offset="0.6875"/><stop stop-opacity="1" stop-color="rgb(0%, 21.998596%, 100%)" offset="0.75"/><stop stop-opacity="1" stop-color="rgb(0%, 21.998596%, 100%)" offset="1"/></linearGradient><clipPath id="id6"><path d="M 239 119 L 302 119 L 302 165 L 239 165 Z M 239 119 " clip-rule="nonzero"/></clipPath><clipPath id="id7"><path d="M 262.445312 187.429688 L 216.992188 141.976562 L 259.976562 98.992188 L 305.429688 144.449219 Z M 262.445312 187.429688 " clip-rule="nonzero"/></clipPath><clipPath id="id8"><path d="M 262.445312 187.429688 L 216.992188 141.976562 L 259.976562 98.992188 L 305.429688 144.449219 Z M 262.445312 187.429688 " clip-rule="nonzero"/></clipPath><clipPath id="id9"><path d="M 272.449219 147.519531 L 239.160156 147.554688 L 239.160156 150.316406 L 272.449219 150.28125 Z M 239.152344 122.644531 L 262.519531 122.621094 L 262.519531 119.855469 L 239.152344 119.882812 Z M 239.167969 129.554688 L 278.632812 129.511719 L 278.636719 126.75 L 239.164062 126.789062 Z M 239.164062 161.390625 L 239.164062 164.152344 L 283.804688 164.105469 L 283.816406 161.351562 Z M 239.15625 157.246094 L 292.621094 157.1875 L 292.621094 154.421875 L 239.164062 154.472656 Z M 239.148438 136.488281 L 290.5 136.425781 L 290.5 133.667969 L 239.15625 133.71875 Z M 239.160156 143.398438 L 301.546875 143.332031 L 301.550781 140.570312 L 239.160156 140.636719 Z M 239.160156 143.398438 " clip-rule="nonzero"/></clipPath><linearGradient x1="-3630.199501" gradientTransform="matrix(0.364783, -0.000375023, -0.000375023, 0.364783, 1564.565157, -1032.312165)" y1="3215.53" x2="-3459.001682" gradientUnits="userSpaceOnUse" y2="3215.53" id="id10"><stop stop-opacity="1" stop-color="rgb(54.899597%, 0%, 92.89856%)" offset="0"/><stop stop-opacity="1" stop-color="rgb(55.038452%, 0.344849%, 92.875671%)" offset="0.00390625"/><stop stop-opacity="1" stop-color="rgb(55.177307%, 0.691223%, 92.854309%)" offset="0.0078125"/><stop stop-opacity="1" stop-color="rgb(55.317688%, 1.042175%, 92.831421%)" offset="0.0117188"/><stop stop-opacity="1" stop-color="rgb(55.459595%, 1.393127%, 92.808533%)" offset="0.015625"/><stop stop-opacity="1" stop-color="rgb(55.599976%, 1.74408%, 92.785645%)" offset="0.0195313"/><stop stop-opacity="1" stop-color="rgb(55.741882%, 2.095032%, 92.764282%)" offset="0.0234375"/><stop stop-opacity="1" stop-color="rgb(55.882263%, 2.445984%, 92.741394%)" offset="0.0273438"/><stop stop-opacity="1" stop-color="rgb(56.02417%, 2.796936%, 92.718506%)" offset="0.03125"/><stop stop-opacity="1" stop-color="rgb(56.164551%, 3.147888%, 92.695618%)" offset="0.0351562"/><stop stop-opacity="1" stop-color="rgb(56.306458%, 3.49884%, 92.672729%)" offset="0.0390625"/><stop stop-opacity="1" stop-color="rgb(56.446838%, 3.849792%, 92.649841%)" offset="0.0429688"/><stop stop-opacity="1" stop-color="rgb(56.588745%, 4.200745%, 92.628479%)" offset="0.046875"/><stop stop-opacity="1" stop-color="rgb(56.729126%, 4.551697%, 92.605591%)" offset="0.0507812"/><stop stop-opacity="1" stop-color="rgb(56.871033%, 4.902649%, 92.582703%)" offset="0.0546875"/><stop stop-opacity="1" stop-color="rgb(57.011414%, 5.253601%, 92.559814%)" offset="0.0585938"/><stop stop-opacity="1" stop-color="rgb(57.15332%, 5.604553%, 92.536926%)" offset="0.0625"/><stop stop-opacity="1" stop-color="rgb(57.293701%, 5.955505%, 92.514038%)" offset="0.0664062"/><stop stop-opacity="1" stop-color="rgb(57.434082%, 6.306458%, 92.49115%)" offset="0.0703125"/><stop stop-opacity="1" stop-color="rgb(57.574463%, 6.65741%, 92.468262%)" offset="0.0742188"/><stop stop-opacity="1" stop-color="rgb(57.71637%, 7.008362%, 92.446899%)" offset="0.078125"/><stop stop-opacity="1" stop-color="rgb(57.85675%, 7.359314%, 92.424011%)" offset="0.0820313"/><stop stop-opacity="1" stop-color="rgb(57.998657%, 7.710266%, 92.401123%)" offset="0.0859375"/><stop stop-opacity="1" stop-color="rgb(58.139038%, 8.061218%, 92.378235%)" offset="0.0898438"/><stop stop-opacity="1" stop-color="rgb(58.280945%, 8.41217%, 92.355347%)" offset="0.09375"/><stop stop-opacity="1" stop-color="rgb(58.421326%, 8.763123%, 92.332458%)" offset="0.0976563"/><stop stop-opacity="1" stop-color="rgb(58.563232%, 9.114075%, 92.311096%)" offset="0.101562"/><stop stop-opacity="1" stop-color="rgb(58.703613%, 9.465027%, 92.288208%)" offset="0.105469"/><stop stop-opacity="1" stop-color="rgb(58.84552%, 9.815979%, 92.26532%)" offset="0.109375"/><stop stop-opacity="1" stop-color="rgb(58.985901%, 10.166931%, 92.242432%)" offset="0.113281"/><stop stop-opacity="1" stop-color="rgb(59.127808%, 10.517883%, 92.219543%)" offset="0.117188"/><stop stop-opacity="1" stop-color="rgb(59.268188%, 10.868835%, 92.196655%)" offset="0.121094"/><stop stop-opacity="1" stop-color="rgb(59.410095%, 11.219788%, 92.173767%)" offset="0.125"/><stop stop-opacity="1" stop-color="rgb(59.550476%, 11.57074%, 92.150879%)" offset="0.128906"/><stop stop-opacity="1" stop-color="rgb(59.692383%, 11.921692%, 92.129517%)" offset="0.132812"/><stop stop-opacity="1" stop-color="rgb(59.832764%, 12.272644%, 92.106628%)" offset="0.136719"/><stop stop-opacity="1" stop-color="rgb(59.97467%, 12.623596%, 92.08374%)" offset="0.140625"/><stop stop-opacity="1" stop-color="rgb(60.115051%, 12.974548%, 92.060852%)" offset="0.144531"/><stop stop-opacity="1" stop-color="rgb(60.256958%, 13.327026%, 92.037964%)" offset="0.148438"/><stop stop-opacity="1" stop-color="rgb(60.397339%, 13.677979%, 92.015076%)" offset="0.152344"/><stop stop-opacity="1" stop-color="rgb(60.539246%, 14.028931%, 91.993713%)" offset="0.15625"/><stop stop-opacity="1" stop-color="rgb(60.679626%, 14.379883%, 91.970825%)" offset="0.160156"/><stop stop-opacity="1" stop-color="rgb(60.821533%, 14.730835%, 91.947937%)" offset="0.164062"/><stop stop-opacity="1" stop-color="rgb(60.961914%, 15.081787%, 91.925049%)" offset="0.167969"/><stop stop-opacity="1" stop-color="rgb(61.103821%, 15.432739%, 91.902161%)" offset="0.171875"/><stop stop-opacity="1" stop-color="rgb(61.244202%, 15.783691%, 91.879272%)" offset="0.175781"/><stop stop-opacity="1" stop-color="rgb(61.386108%, 16.134644%, 91.856384%)" offset="0.179688"/><stop stop-opacity="1" stop-color="rgb(61.526489%, 16.485596%, 91.833496%)" offset="0.183594"/><stop stop-opacity="1" stop-color="rgb(61.668396%, 16.836548%, 91.812134%)" offset="0.1875"/><stop stop-opacity="1" stop-color="rgb(61.808777%, 17.1875%, 91.789246%)" offset="0.191406"/><stop stop-opacity="1" stop-color="rgb(61.950684%, 17.538452%, 91.766357%)" offset="0.195312"/><stop stop-opacity="1" stop-color="rgb(62.091064%, 17.889404%, 91.743469%)" offset="0.199219"/><stop stop-opacity="1" stop-color="rgb(62.231445%, 18.240356%, 91.720581%)" offset="0.203125"/><stop stop-opacity="1" stop-color="rgb(62.371826%, 18.591309%, 91.697693%)" offset="0.207031"/><stop stop-opacity="1" stop-color="rgb(62.513733%, 18.942261%, 91.676331%)" offset="0.210938"/><stop stop-opacity="1" stop-color="rgb(62.654114%, 19.293213%, 91.653442%)" offset="0.214844"/><stop stop-opacity="1" stop-color="rgb(62.796021%, 19.644165%, 91.630554%)" offset="0.21875"/><stop stop-opacity="1" stop-color="rgb(62.936401%, 19.995117%, 91.607666%)" offset="0.222656"/><stop stop-opacity="1" stop-color="rgb(63.078308%, 20.346069%, 91.584778%)" offset="0.226563"/><stop stop-opacity="1" stop-color="rgb(63.218689%, 20.697021%, 91.56189%)" offset="0.230469"/><stop stop-opacity="1" stop-color="rgb(63.360596%, 21.047974%, 91.539001%)" offset="0.234375"/><stop stop-opacity="1" stop-color="rgb(63.500977%, 21.398926%, 91.516113%)" offset="0.238281"/><stop stop-opacity="1" stop-color="rgb(63.642883%, 21.749878%, 91.494751%)" offset="0.242188"/><stop stop-opacity="1" stop-color="rgb(63.783264%, 22.10083%, 91.471863%)" offset="0.246094"/><stop stop-opacity="1" stop-color="rgb(63.925171%, 22.451782%, 91.448975%)" offset="0.25"/><stop stop-opacity="1" stop-color="rgb(64.065552%, 22.802734%, 91.426086%)" offset="0.253906"/><stop stop-opacity="1" stop-color="rgb(64.207458%, 23.153687%, 91.403198%)" offset="0.257812"/><stop stop-opacity="1" stop-color="rgb(64.347839%, 23.504639%, 91.38031%)" offset="0.261719"/><stop stop-opacity="1" stop-color="rgb(64.489746%, 23.855591%, 91.358948%)" offset="0.265625"/><stop stop-opacity="1" stop-color="rgb(64.630127%, 24.206543%, 91.33606%)" offset="0.269531"/><stop stop-opacity="1" stop-color="rgb(64.772034%, 24.557495%, 91.313171%)" offset="0.273438"/><stop stop-opacity="1" stop-color="rgb(64.912415%, 24.908447%, 91.290283%)" offset="0.277344"/><stop stop-opacity="1" stop-color="rgb(65.054321%, 25.259399%, 91.267395%)" offset="0.28125"/><stop stop-opacity="1" stop-color="rgb(65.194702%, 25.610352%, 91.244507%)" offset="0.285156"/><stop stop-opacity="1" stop-color="rgb(65.336609%, 25.961304%, 91.221619%)" offset="0.289062"/><stop stop-opacity="1" stop-color="rgb(65.47699%, 26.312256%, 91.19873%)" offset="0.292969"/><stop stop-opacity="1" stop-color="rgb(65.618896%, 26.663208%, 91.177368%)" offset="0.296875"/><stop stop-opacity="1" stop-color="rgb(65.759277%, 27.01416%, 91.15448%)" offset="0.300781"/><stop stop-opacity="1" stop-color="rgb(65.901184%, 27.365112%, 91.131592%)" offset="0.304688"/><stop stop-opacity="1" stop-color="rgb(66.041565%, 27.716064%, 91.108704%)" offset="0.308594"/><stop stop-opacity="1" stop-color="rgb(66.183472%, 28.067017%, 91.085815%)" offset="0.3125"/><stop stop-opacity="1" stop-color="rgb(66.323853%, 28.417969%, 91.062927%)" offset="0.316406"/><stop stop-opacity="1" stop-color="rgb(66.465759%, 28.768921%, 91.041565%)" offset="0.320312"/><stop stop-opacity="1" stop-color="rgb(66.60614%, 29.119873%, 91.018677%)" offset="0.324219"/><stop stop-opacity="1" stop-color="rgb(66.746521%, 29.470825%, 90.995789%)" offset="0.328125"/><stop stop-opacity="1" stop-color="rgb(66.886902%, 29.821777%, 90.9729%)" offset="0.332031"/><stop stop-opacity="1" stop-color="rgb(67.028809%, 30.172729%, 90.950012%)" offset="0.335938"/><stop stop-opacity="1" stop-color="rgb(67.169189%, 30.523682%, 90.927124%)" offset="0.339844"/><stop stop-opacity="1" stop-color="rgb(67.311096%, 30.874634%, 90.905762%)" offset="0.34375"/><stop stop-opacity="1" stop-color="rgb(67.451477%, 31.225586%, 90.882874%)" offset="0.347656"/><stop stop-opacity="1" stop-color="rgb(67.593384%, 31.578064%, 90.859985%)" offset="0.351563"/><stop stop-opacity="1" stop-color="rgb(67.733765%, 31.929016%, 90.837097%)" offset="0.355469"/><stop stop-opacity="1" stop-color="rgb(67.875671%, 32.279968%, 90.814209%)" offset="0.359375"/><stop stop-opacity="1" stop-color="rgb(68.016052%, 32.63092%, 90.791321%)" offset="0.363281"/><stop stop-opacity="1" stop-color="rgb(68.157959%, 32.981873%, 90.768433%)" offset="0.367188"/><stop stop-opacity="1" stop-color="rgb(68.29834%, 33.332825%, 90.745544%)" offset="0.371094"/><stop stop-opacity="1" stop-color="rgb(68.440247%, 33.683777%, 90.724182%)" offset="0.375"/><stop stop-opacity="1" stop-color="rgb(68.580627%, 34.034729%, 90.701294%)" offset="0.378906"/><stop stop-opacity="1" stop-color="rgb(68.722534%, 34.385681%, 90.678406%)" offset="0.382812"/><stop stop-opacity="1" stop-color="rgb(68.862915%, 34.736633%, 90.655518%)" offset="0.386719"/><stop stop-opacity="1" stop-color="rgb(69.004822%, 35.087585%, 90.632629%)" offset="0.390625"/><stop stop-opacity="1" stop-color="rgb(69.145203%, 35.438538%, 90.609741%)" offset="0.394531"/><stop stop-opacity="1" stop-color="rgb(69.287109%, 35.78949%, 90.588379%)" offset="0.398438"/><stop stop-opacity="1" stop-color="rgb(69.42749%, 36.140442%, 90.565491%)" offset="0.402344"/><stop stop-opacity="1" stop-color="rgb(69.569397%, 36.491394%, 90.542603%)" offset="0.40625"/><stop stop-opacity="1" stop-color="rgb(69.709778%, 36.842346%, 90.519714%)" offset="0.410156"/><stop stop-opacity="1" stop-color="rgb(69.851685%, 37.193298%, 90.496826%)" offset="0.414063"/><stop stop-opacity="1" stop-color="rgb(69.992065%, 37.54425%, 90.473938%)" offset="0.417969"/><stop stop-opacity="1" stop-color="rgb(70.133972%, 37.895203%, 90.45105%)" offset="0.421875"/><stop stop-opacity="1" stop-color="rgb(70.274353%, 38.246155%, 90.428162%)" offset="0.425781"/><stop stop-opacity="1" stop-color="rgb(70.41626%, 38.597107%, 90.406799%)" offset="0.429688"/><stop stop-opacity="1" stop-color="rgb(70.556641%, 38.948059%, 90.383911%)" offset="0.433594"/><stop stop-opacity="1" stop-color="rgb(70.698547%, 39.299011%, 90.361023%)" offset="0.4375"/><stop stop-opacity="1" stop-color="rgb(70.838928%, 39.649963%, 90.338135%)" offset="0.441406"/><stop stop-opacity="1" stop-color="rgb(70.980835%, 40.000916%, 90.315247%)" offset="0.445313"/><stop stop-opacity="1" stop-color="rgb(71.121216%, 40.351868%, 90.292358%)" offset="0.449219"/><stop stop-opacity="1" stop-color="rgb(71.261597%, 40.70282%, 90.270996%)" offset="0.453125"/><stop stop-opacity="1" stop-color="rgb(71.401978%, 41.053772%, 90.248108%)" offset="0.457031"/><stop stop-opacity="1" stop-color="rgb(71.543884%, 41.404724%, 90.22522%)" offset="0.460938"/><stop stop-opacity="1" stop-color="rgb(71.684265%, 41.755676%, 90.202332%)" offset="0.464844"/><stop stop-opacity="1" stop-color="rgb(71.826172%, 42.106628%, 90.179443%)" offset="0.46875"/><stop stop-opacity="1" stop-color="rgb(71.966553%, 42.457581%, 90.156555%)" offset="0.472656"/><stop stop-opacity="1" stop-color="rgb(72.108459%, 42.808533%, 90.133667%)" offset="0.476562"/><stop stop-opacity="1" stop-color="rgb(72.24884%, 43.159485%, 90.110779%)" offset="0.480469"/><stop stop-opacity="1" stop-color="rgb(72.390747%, 43.510437%, 90.089417%)" offset="0.484375"/><stop stop-opacity="1" stop-color="rgb(72.531128%, 43.861389%, 90.066528%)" offset="0.488281"/><stop stop-opacity="1" stop-color="rgb(72.673035%, 44.212341%, 90.04364%)" offset="0.492188"/><stop stop-opacity="1" stop-color="rgb(72.813416%, 44.563293%, 90.020752%)" offset="0.496094"/><stop stop-opacity="1" stop-color="rgb(72.955322%, 44.914246%, 89.997864%)" offset="0.5"/><stop stop-opacity="1" stop-color="rgb(73.095703%, 45.265198%, 89.974976%)" offset="0.503906"/><stop stop-opacity="1" stop-color="rgb(73.23761%, 45.61615%, 89.953613%)" offset="0.507812"/><stop stop-opacity="1" stop-color="rgb(73.377991%, 45.967102%, 89.930725%)" offset="0.511719"/><stop stop-opacity="1" stop-color="rgb(73.519897%, 46.318054%, 89.907837%)" offset="0.515625"/><stop stop-opacity="1" stop-color="rgb(73.660278%, 46.669006%, 89.884949%)" offset="0.519531"/><stop stop-opacity="1" stop-color="rgb(73.802185%, 47.019958%, 89.862061%)" offset="0.523438"/><stop stop-opacity="1" stop-color="rgb(73.942566%, 47.370911%, 89.839172%)" offset="0.527344"/><stop stop-opacity="1" stop-color="rgb(74.084473%, 47.721863%, 89.816284%)" offset="0.53125"/><stop stop-opacity="1" stop-color="rgb(74.224854%, 48.072815%, 89.793396%)" offset="0.535156"/><stop stop-opacity="1" stop-color="rgb(74.36676%, 48.423767%, 89.772034%)" offset="0.539063"/><stop stop-opacity="1" stop-color="rgb(74.507141%, 48.774719%, 89.749146%)" offset="0.542969"/><stop stop-opacity="1" stop-color="rgb(74.649048%, 49.127197%, 89.726257%)" offset="0.546875"/><stop stop-opacity="1" stop-color="rgb(74.789429%, 49.478149%, 89.703369%)" offset="0.550781"/><stop stop-opacity="1" stop-color="rgb(74.931335%, 49.829102%, 89.680481%)" offset="0.554688"/><stop stop-opacity="1" stop-color="rgb(75.071716%, 50.180054%, 89.657593%)" offset="0.558594"/><stop stop-opacity="1" stop-color="rgb(75.213623%, 50.531006%, 89.63623%)" offset="0.5625"/><stop stop-opacity="1" stop-color="rgb(75.354004%, 50.881958%, 89.613342%)" offset="0.566406"/><stop stop-opacity="1" stop-color="rgb(75.495911%, 51.23291%, 89.590454%)" offset="0.570313"/><stop stop-opacity="1" stop-color="rgb(75.636292%, 51.583862%, 89.567566%)" offset="0.574219"/><stop stop-opacity="1" stop-color="rgb(75.776672%, 51.934814%, 89.544678%)" offset="0.578125"/><stop stop-opacity="1" stop-color="rgb(75.917053%, 52.285767%, 89.52179%)" offset="0.582031"/><stop stop-opacity="1" stop-color="rgb(76.05896%, 52.636719%, 89.498901%)" offset="0.585938"/><stop stop-opacity="1" stop-color="rgb(76.199341%, 52.987671%, 89.476013%)" offset="0.589844"/><stop stop-opacity="1" stop-color="rgb(76.341248%, 53.338623%, 89.454651%)" offset="0.59375"/><stop stop-opacity="1" stop-color="rgb(76.481628%, 53.689575%, 89.431763%)" offset="0.597656"/><stop stop-opacity="1" stop-color="rgb(76.623535%, 54.040527%, 89.408875%)" offset="0.601563"/><stop stop-opacity="1" stop-color="rgb(76.763916%, 54.391479%, 89.385986%)" offset="0.605469"/><stop stop-opacity="1" stop-color="rgb(76.905823%, 54.742432%, 89.363098%)" offset="0.609375"/><stop stop-opacity="1" stop-color="rgb(77.046204%, 55.093384%, 89.34021%)" offset="0.613281"/><stop stop-opacity="1" stop-color="rgb(77.18811%, 55.444336%, 89.318848%)" offset="0.617188"/><stop stop-opacity="1" stop-color="rgb(77.328491%, 55.795288%, 89.295959%)" offset="0.621094"/><stop stop-opacity="1" stop-color="rgb(77.470398%, 56.14624%, 89.273071%)" offset="0.625"/><stop stop-opacity="1" stop-color="rgb(77.610779%, 56.497192%, 89.250183%)" offset="0.628906"/><stop stop-opacity="1" stop-color="rgb(77.752686%, 56.848145%, 89.227295%)" offset="0.632813"/><stop stop-opacity="1" stop-color="rgb(77.893066%, 57.199097%, 89.204407%)" offset="0.636719"/><stop stop-opacity="1" stop-color="rgb(78.034973%, 57.550049%, 89.181519%)" offset="0.640625"/><stop stop-opacity="1" stop-color="rgb(78.175354%, 57.901001%, 89.15863%)" offset="0.644531"/><stop stop-opacity="1" stop-color="rgb(78.317261%, 58.251953%, 89.137268%)" offset="0.648438"/><stop stop-opacity="1" stop-color="rgb(78.457642%, 58.602905%, 89.11438%)" offset="0.652344"/><stop stop-opacity="1" stop-color="rgb(78.599548%, 58.953857%, 89.091492%)" offset="0.65625"/><stop stop-opacity="1" stop-color="rgb(78.739929%, 59.30481%, 89.068604%)" offset="0.660156"/><stop stop-opacity="1" stop-color="rgb(78.881836%, 59.655762%, 89.045715%)" offset="0.664063"/><stop stop-opacity="1" stop-color="rgb(79.022217%, 60.006714%, 89.022827%)" offset="0.667969"/><stop stop-opacity="1" stop-color="rgb(79.164124%, 60.357666%, 89.001465%)" offset="0.671875"/><stop stop-opacity="1" stop-color="rgb(79.304504%, 60.708618%, 88.978577%)" offset="0.675781"/><stop stop-opacity="1" stop-color="rgb(79.446411%, 61.05957%, 88.955688%)" offset="0.679688"/><stop stop-opacity="1" stop-color="rgb(79.586792%, 61.410522%, 88.9328%)" offset="0.683594"/><stop stop-opacity="1" stop-color="rgb(79.728699%, 61.761475%, 88.909912%)" offset="0.6875"/><stop stop-opacity="1" stop-color="rgb(79.86908%, 62.112427%, 88.887024%)" offset="0.691406"/><stop stop-opacity="1" stop-color="rgb(80.010986%, 62.463379%, 88.864136%)" offset="0.695313"/><stop stop-opacity="1" stop-color="rgb(80.151367%, 62.814331%, 88.841248%)" offset="0.699219"/><stop stop-opacity="1" stop-color="rgb(80.291748%, 63.165283%, 88.819885%)" offset="0.703125"/><stop stop-opacity="1" stop-color="rgb(80.432129%, 63.516235%, 88.796997%)" offset="0.707031"/><stop stop-opacity="1" stop-color="rgb(80.574036%, 63.867188%, 88.774109%)" offset="0.710938"/><stop stop-opacity="1" stop-color="rgb(80.714417%, 64.21814%, 88.751221%)" offset="0.714844"/><stop stop-opacity="1" stop-color="rgb(80.856323%, 64.569092%, 88.728333%)" offset="0.71875"/><stop stop-opacity="1" stop-color="rgb(80.996704%, 64.920044%, 88.705444%)" offset="0.722656"/><stop stop-opacity="1" stop-color="rgb(81.138611%, 65.270996%, 88.684082%)" offset="0.726563"/><stop stop-opacity="1" stop-color="rgb(81.278992%, 65.621948%, 88.661194%)" offset="0.730469"/><stop stop-opacity="1" stop-color="rgb(81.420898%, 65.9729%, 88.638306%)" offset="0.734375"/><stop stop-opacity="1" stop-color="rgb(81.561279%, 66.323853%, 88.615417%)" offset="0.738281"/><stop stop-opacity="1" stop-color="rgb(81.703186%, 66.676331%, 88.592529%)" offset="0.742188"/><stop stop-opacity="1" stop-color="rgb(81.843567%, 67.027283%, 88.569641%)" offset="0.746094"/><stop stop-opacity="1" stop-color="rgb(81.985474%, 67.378235%, 88.546753%)" offset="0.75"/><stop stop-opacity="1" stop-color="rgb(82.125854%, 67.729187%, 88.523865%)" offset="0.753906"/><stop stop-opacity="1" stop-color="rgb(82.267761%, 68.080139%, 88.502502%)" offset="0.757813"/><stop stop-opacity="1" stop-color="rgb(82.408142%, 68.431091%, 88.479614%)" offset="0.761719"/><stop stop-opacity="1" stop-color="rgb(82.550049%, 68.782043%, 88.456726%)" offset="0.765625"/><stop stop-opacity="1" stop-color="rgb(82.69043%, 69.132996%, 88.433838%)" offset="0.769531"/><stop stop-opacity="1" stop-color="rgb(82.832336%, 69.483948%, 88.41095%)" offset="0.773438"/><stop stop-opacity="1" stop-color="rgb(82.972717%, 69.8349%, 88.388062%)" offset="0.777344"/><stop stop-opacity="1" stop-color="rgb(83.114624%, 70.185852%, 88.366699%)" offset="0.78125"/><stop stop-opacity="1" stop-color="rgb(83.255005%, 70.536804%, 88.343811%)" offset="0.785156"/><stop stop-opacity="1" stop-color="rgb(83.396912%, 70.887756%, 88.320923%)" offset="0.789063"/><stop stop-opacity="1" stop-color="rgb(83.537292%, 71.238708%, 88.298035%)" offset="0.792969"/><stop stop-opacity="1" stop-color="rgb(83.679199%, 71.589661%, 88.275146%)" offset="0.796875"/><stop stop-opacity="1" stop-color="rgb(83.81958%, 71.940613%, 88.252258%)" offset="0.800781"/><stop stop-opacity="1" stop-color="rgb(83.961487%, 72.291565%, 88.22937%)" offset="0.804688"/><stop stop-opacity="1" stop-color="rgb(84.101868%, 72.642517%, 88.206482%)" offset="0.808594"/><stop stop-opacity="1" stop-color="rgb(84.243774%, 72.993469%, 88.18512%)" offset="0.8125"/><stop stop-opacity="1" stop-color="rgb(84.384155%, 73.344421%, 88.162231%)" offset="0.816406"/><stop stop-opacity="1" stop-color="rgb(84.526062%, 73.695374%, 88.139343%)" offset="0.820312"/><stop stop-opacity="1" stop-color="rgb(84.666443%, 74.046326%, 88.116455%)" offset="0.824219"/><stop stop-opacity="1" stop-color="rgb(84.806824%, 74.397278%, 88.093567%)" offset="0.828125"/><stop stop-opacity="1" stop-color="rgb(84.947205%, 74.74823%, 88.070679%)" offset="0.832031"/><stop stop-opacity="1" stop-color="rgb(85.089111%, 75.099182%, 88.049316%)" offset="0.835938"/><stop stop-opacity="1" stop-color="rgb(85.229492%, 75.450134%, 88.026428%)" offset="0.839844"/><stop stop-opacity="1" stop-color="rgb(85.371399%, 75.801086%, 88.00354%)" offset="0.84375"/><stop stop-opacity="1" stop-color="rgb(85.51178%, 76.152039%, 87.980652%)" offset="0.847656"/><stop stop-opacity="1" stop-color="rgb(85.653687%, 76.502991%, 87.957764%)" offset="0.851563"/><stop stop-opacity="1" stop-color="rgb(85.794067%, 76.853943%, 87.934875%)" offset="0.855469"/><stop stop-opacity="1" stop-color="rgb(85.935974%, 77.204895%, 87.911987%)" offset="0.859375"/><stop stop-opacity="1" stop-color="rgb(86.076355%, 77.555847%, 87.889099%)" offset="0.863281"/><stop stop-opacity="1" stop-color="rgb(86.218262%, 77.906799%, 87.867737%)" offset="0.867188"/><stop stop-opacity="1" stop-color="rgb(86.358643%, 78.257751%, 87.844849%)" offset="0.871094"/><stop stop-opacity="1" stop-color="rgb(86.500549%, 78.608704%, 87.82196%)" offset="0.875"/><stop stop-opacity="1" stop-color="rgb(86.64093%, 78.959656%, 87.799072%)" offset="0.878906"/><stop stop-opacity="1" stop-color="rgb(86.782837%, 79.310608%, 87.776184%)" offset="0.882813"/><stop stop-opacity="1" stop-color="rgb(86.923218%, 79.66156%, 87.753296%)" offset="0.886719"/><stop stop-opacity="1" stop-color="rgb(87.065125%, 80.012512%, 87.731934%)" offset="0.890625"/><stop stop-opacity="1" stop-color="rgb(87.205505%, 80.363464%, 87.709045%)" offset="0.894531"/><stop stop-opacity="1" stop-color="rgb(87.347412%, 80.714417%, 87.686157%)" offset="0.898438"/><stop stop-opacity="1" stop-color="rgb(87.487793%, 81.065369%, 87.663269%)" offset="0.902344"/><stop stop-opacity="1" stop-color="rgb(87.6297%, 81.416321%, 87.640381%)" offset="0.90625"/><stop stop-opacity="1" stop-color="rgb(87.770081%, 81.767273%, 87.617493%)" offset="0.910156"/><stop stop-opacity="1" stop-color="rgb(87.911987%, 82.118225%, 87.594604%)" offset="0.914063"/><stop stop-opacity="1" stop-color="rgb(88.052368%, 82.469177%, 87.571716%)" offset="0.917969"/><stop stop-opacity="1" stop-color="rgb(88.194275%, 82.820129%, 87.550354%)" offset="0.921875"/><stop stop-opacity="1" stop-color="rgb(88.334656%, 83.171082%, 87.527466%)" offset="0.925781"/><stop stop-opacity="1" stop-color="rgb(88.476562%, 83.522034%, 87.504578%)" offset="0.929688"/><stop stop-opacity="1" stop-color="rgb(88.616943%, 83.872986%, 87.481689%)" offset="0.933594"/><stop stop-opacity="1" stop-color="rgb(88.75885%, 84.223938%, 87.458801%)" offset="0.9375"/><stop stop-opacity="1" stop-color="rgb(88.899231%, 84.57489%, 87.435913%)" offset="0.941406"/><stop stop-opacity="1" stop-color="rgb(89.041138%, 84.927368%, 87.414551%)" offset="0.945312"/><stop stop-opacity="1" stop-color="rgb(89.181519%, 85.27832%, 87.391663%)" offset="0.949219"/><stop stop-opacity="1" stop-color="rgb(89.321899%, 85.629272%, 87.368774%)" offset="0.953125"/><stop stop-opacity="1" stop-color="rgb(89.46228%, 85.980225%, 87.345886%)" offset="0.957031"/><stop stop-opacity="1" stop-color="rgb(89.604187%, 86.331177%, 87.322998%)" offset="0.960938"/><stop stop-opacity="1" stop-color="rgb(89.744568%, 86.682129%, 87.30011%)" offset="0.964844"/><stop stop-opacity="1" stop-color="rgb(89.886475%, 87.033081%, 87.277222%)" offset="0.96875"/><stop stop-opacity="1" stop-color="rgb(90.026855%, 87.384033%, 87.254333%)" offset="0.972656"/><stop stop-opacity="1" stop-color="rgb(90.168762%, 87.734985%, 87.232971%)" offset="0.976563"/><stop stop-opacity="1" stop-color="rgb(90.309143%, 88.085938%, 87.210083%)" offset="0.980469"/><stop stop-opacity="1" stop-color="rgb(90.45105%, 88.43689%, 87.187195%)" offset="0.984375"/><stop stop-opacity="1" stop-color="rgb(90.591431%, 88.787842%, 87.164307%)" offset="0.988281"/><stop stop-opacity="1" stop-color="rgb(90.733337%, 89.138794%, 87.141418%)" offset="0.992188"/><stop stop-opacity="1" stop-color="rgb(90.866089%, 89.468384%, 87.120056%)" offset="0.996094"/><stop stop-opacity="1" stop-color="rgb(90.99884%, 89.7995%, 87.098694%)" offset="1"/></linearGradient><clipPath id="id11"><path d="M 183 54 L 242 54 L 242 238 L 183 238 Z M 183 54 " clip-rule="nonzero"/></clipPath><clipPath id="id12"><path d="M 195.589844 249.609375 L 98.753906 152.769531 L 197.566406 53.957031 L 294.402344 150.796875 Z M 195.589844 249.609375 " clip-rule="nonzero"/></clipPath><clipPath id="id13"><path d="M 195.589844 249.609375 L 98.753906 152.769531 L 197.566406 53.957031 L 294.402344 150.796875 Z M 195.589844 249.609375 " clip-rule="nonzero"/></clipPath><clipPath id="id14"><path d="M 183.308594 200.164062 L 183.3125 202.917969 C 184.105469 202.917969 184.898438 202.878906 185.683594 202.804688 C 186.472656 202.726562 187.257812 202.609375 188.035156 202.457031 C 188.8125 202.300781 189.578125 202.109375 190.335938 201.882812 C 191.09375 201.652344 191.839844 201.386719 192.570312 201.082031 C 193.300781 200.78125 194.015625 200.445312 194.714844 200.070312 C 195.414062 199.699219 196.089844 199.292969 196.75 198.851562 C 197.40625 198.414062 198.042969 197.941406 198.652344 197.441406 C 199.265625 196.9375 199.851562 196.410156 200.410156 195.847656 C 200.96875 195.289062 201.5 194.703125 202.003906 194.09375 C 202.503906 193.480469 202.972656 192.847656 203.414062 192.1875 C 203.851562 191.53125 204.257812 190.851562 204.632812 190.152344 C 205.003906 189.457031 205.34375 188.742188 205.644531 188.007812 C 205.949219 187.277344 206.214844 186.53125 206.441406 185.773438 C 206.671875 185.015625 206.863281 184.25 207.015625 183.472656 C 207.171875 182.695312 207.285156 181.914062 207.363281 181.125 C 207.441406 180.335938 207.480469 179.546875 207.480469 178.753906 L 207.277344 63.671875 L 204.519531 60.910156 L 204.722656 178.746094 C 204.722656 179.449219 204.691406 180.152344 204.621094 180.851562 C 204.554688 181.546875 204.453125 182.242188 204.316406 182.929688 C 204.179688 183.621094 204.007812 184.300781 203.804688 184.972656 C 203.601562 185.640625 203.367188 186.300781 203.097656 186.949219 C 202.832031 187.597656 202.53125 188.234375 202.203125 188.851562 C 201.871094 189.46875 201.511719 190.070312 201.121094 190.65625 C 200.734375 191.238281 200.316406 191.800781 199.871094 192.34375 C 199.425781 192.882812 198.957031 193.402344 198.460938 193.898438 C 197.964844 194.394531 197.445312 194.863281 196.902344 195.308594 C 196.363281 195.753906 195.796875 196.171875 195.214844 196.5625 C 194.632812 196.949219 194.03125 197.308594 193.414062 197.640625 C 192.792969 197.972656 192.160156 198.269531 191.511719 198.539062 C 190.863281 198.804688 190.203125 199.042969 189.53125 199.246094 C 188.859375 199.449219 188.179688 199.617188 187.492188 199.753906 C 186.804688 199.890625 186.109375 199.992188 185.410156 200.0625 C 184.710938 200.128906 184.011719 200.164062 183.308594 200.164062 Z M 197.820312 178.746094 C 197.820312 179.703125 197.726562 180.648438 197.542969 181.585938 C 197.355469 182.519531 197.082031 183.429688 196.714844 184.3125 C 196.351562 185.195312 195.902344 186.03125 195.375 186.824219 C 194.84375 187.617188 194.242188 188.351562 193.566406 189.027344 C 192.894531 189.703125 192.160156 190.304688 191.367188 190.832031 C 190.574219 191.363281 189.734375 191.8125 188.851562 192.175781 C 187.972656 192.539062 187.0625 192.816406 186.125 193 C 185.1875 193.1875 184.242188 193.277344 183.285156 193.277344 L 183.292969 196.035156 C 183.859375 196.035156 184.421875 196.007812 184.988281 195.953125 C 185.550781 195.894531 186.109375 195.8125 186.667969 195.703125 C 187.222656 195.59375 187.769531 195.457031 188.3125 195.292969 C 188.855469 195.128906 189.386719 194.9375 189.910156 194.722656 C 190.433594 194.503906 190.945312 194.261719 191.445312 193.996094 C 191.945312 193.730469 192.429688 193.441406 192.898438 193.125 C 193.371094 192.8125 193.824219 192.476562 194.261719 192.117188 C 194.699219 191.757812 195.117188 191.378906 195.519531 190.976562 C 195.917969 190.578125 196.296875 190.160156 196.65625 189.722656 C 197.015625 189.285156 197.351562 188.828125 197.667969 188.359375 C 197.980469 187.886719 198.269531 187.402344 198.539062 186.902344 C 198.804688 186.40625 199.046875 185.894531 199.261719 185.371094 C 199.476562 184.847656 199.667969 184.316406 199.832031 183.773438 C 199.996094 183.230469 200.132812 182.683594 200.242188 182.125 C 200.355469 181.570312 200.4375 181.011719 200.492188 180.445312 C 200.546875 179.882812 200.574219 179.316406 200.574219 178.75 L 200.367188 56.757812 L 197.613281 54.003906 Z M 203.351562 198.792969 C 202.039062 200.109375 200.613281 201.285156 199.066406 202.320312 C 197.523438 203.351562 195.890625 204.222656 194.171875 204.933594 C 192.453125 205.644531 190.679688 206.175781 188.851562 206.535156 C 187.027344 206.890625 185.183594 207.066406 183.320312 207.058594 L 183.324219 209.8125 C 184.34375 209.8125 185.359375 209.765625 186.375 209.667969 C 187.386719 209.570312 188.394531 209.421875 189.394531 209.226562 C 190.390625 209.027344 191.378906 208.78125 192.351562 208.488281 C 193.328125 208.195312 194.285156 207.851562 195.222656 207.464844 C 196.164062 207.078125 197.082031 206.644531 197.980469 206.164062 C 198.878906 205.6875 199.75 205.164062 200.597656 204.597656 C 201.441406 204.035156 202.257812 203.429688 203.046875 202.785156 C 203.832031 202.140625 204.585938 201.457031 205.304688 200.738281 C 206.023438 200.019531 206.703125 199.269531 207.347656 198.480469 C 207.992188 197.695312 208.597656 196.878906 209.164062 196.03125 C 209.726562 195.1875 210.25 194.316406 210.726562 193.417969 C 211.207031 192.519531 211.640625 191.601562 212.027344 190.660156 C 212.417969 189.71875 212.757812 188.761719 213.050781 187.789062 C 213.347656 186.8125 213.589844 185.828125 213.789062 184.828125 C 213.984375 183.832031 214.132812 182.824219 214.230469 181.808594 C 214.328125 180.796875 214.378906 179.78125 214.375 178.761719 L 214.183594 70.578125 L 211.425781 67.816406 L 211.617188 178.761719 C 211.625 180.621094 211.453125 182.464844 211.09375 184.292969 C 210.738281 186.117188 210.203125 187.890625 209.492188 189.609375 C 208.785156 191.332031 207.914062 192.960938 206.878906 194.507812 C 205.84375 196.050781 204.667969 197.480469 203.351562 198.792969 Z M 222.882812 218.324219 C 220.296875 220.925781 217.480469 223.246094 214.433594 225.285156 C 211.386719 227.324219 208.164062 229.042969 204.773438 230.445312 C 201.382812 231.84375 197.886719 232.894531 194.28125 233.601562 C 190.679688 234.308594 187.042969 234.652344 183.367188 234.636719 L 183.371094 237.386719 C 185.292969 237.390625 187.210938 237.300781 189.121094 237.117188 C 191.035156 236.929688 192.933594 236.652344 194.816406 236.28125 C 196.703125 235.910156 198.5625 235.445312 200.402344 234.890625 C 202.238281 234.335938 204.046875 233.695312 205.820312 232.960938 C 207.59375 232.230469 209.328125 231.410156 211.023438 230.507812 C 212.714844 229.605469 214.359375 228.621094 215.957031 227.558594 C 217.550781 226.492188 219.09375 225.351562 220.574219 224.132812 C 222.058594 222.917969 223.480469 221.632812 224.835938 220.273438 C 226.191406 218.917969 227.480469 217.496094 228.695312 216.015625 C 229.910156 214.53125 231.054688 212.992188 232.117188 211.394531 C 233.183594 209.796875 234.167969 208.152344 235.070312 206.460938 C 235.972656 204.765625 236.789062 203.035156 237.523438 201.257812 C 238.253906 199.484375 238.898438 197.679688 239.453125 195.839844 C 240.007812 194.003906 240.46875 192.140625 240.84375 190.257812 C 241.214844 188.371094 241.492188 186.472656 241.675781 184.5625 C 241.863281 182.648438 241.953125 180.730469 241.949219 178.808594 L 241.808594 98.199219 L 239.050781 95.441406 L 239.195312 178.808594 C 239.210938 182.480469 238.867188 186.121094 238.160156 189.722656 C 237.457031 193.324219 236.402344 196.824219 235.003906 200.214844 C 233.605469 203.605469 231.882812 206.824219 229.84375 209.875 C 227.804688 212.921875 225.484375 215.738281 222.882812 218.324219 Z M 217.992188 213.433594 C 215.726562 215.714844 213.257812 217.746094 210.589844 219.535156 C 207.917969 221.324219 205.097656 222.835938 202.125 224.0625 C 199.152344 225.292969 196.089844 226.21875 192.933594 226.835938 C 189.773438 227.457031 186.585938 227.761719 183.367188 227.75 L 183.371094 230.503906 C 185.066406 230.507812 186.757812 230.425781 188.445312 230.265625 C 190.132812 230.101562 191.808594 229.855469 193.472656 229.527344 C 195.132812 229.199219 196.777344 228.789062 198.398438 228.300781 C 200.019531 227.8125 201.617188 227.246094 203.179688 226.597656 C 204.746094 225.953125 206.277344 225.230469 207.773438 224.433594 C 209.265625 223.636719 210.71875 222.769531 212.125 221.828125 C 213.535156 220.886719 214.894531 219.882812 216.203125 218.808594 C 217.511719 217.734375 218.765625 216.597656 219.960938 215.402344 C 221.160156 214.203125 222.296875 212.953125 223.371094 211.640625 C 224.441406 210.332031 225.449219 208.972656 226.390625 207.566406 C 227.328125 206.15625 228.199219 204.703125 228.996094 203.210938 C 229.792969 201.714844 230.511719 200.1875 231.160156 198.621094 C 231.804688 197.054688 232.375 195.460938 232.863281 193.835938 C 233.351562 192.214844 233.761719 190.574219 234.089844 188.910156 C 234.417969 187.246094 234.660156 185.570312 234.824219 183.882812 C 234.988281 182.195312 235.066406 180.503906 235.066406 178.808594 L 234.914062 91.304688 L 232.144531 88.535156 L 232.3125 178.804688 C 232.324219 182.027344 232.019531 185.214844 231.402344 188.375 C 230.78125 191.53125 229.859375 194.597656 228.628906 197.570312 C 227.402344 200.542969 225.890625 203.363281 224.101562 206.035156 C 222.3125 208.707031 220.28125 211.175781 218 213.441406 Z M 213.097656 208.539062 C 211.148438 210.5 209.027344 212.246094 206.726562 213.78125 C 204.429688 215.320312 202.003906 216.613281 199.445312 217.667969 C 196.890625 218.71875 194.253906 219.511719 191.539062 220.042969 C 188.824219 220.570312 186.082031 220.828125 183.3125 220.816406 L 183.347656 223.597656 C 184.816406 223.601562 186.285156 223.53125 187.746094 223.390625 C 189.210938 223.25 190.664062 223.035156 192.105469 222.753906 C 193.546875 222.46875 194.96875 222.113281 196.375 221.691406 C 197.78125 221.265625 199.164062 220.773438 200.519531 220.214844 C 201.878906 219.652344 203.203125 219.027344 204.5 218.335938 C 205.796875 217.644531 207.054688 216.894531 208.273438 216.078125 C 209.496094 215.261719 210.675781 214.390625 211.808594 213.460938 C 212.945312 212.53125 214.03125 211.546875 215.070312 210.507812 C 216.105469 209.46875 217.089844 208.382812 218.019531 207.25 C 218.953125 206.113281 219.824219 204.933594 220.640625 203.714844 C 221.453125 202.492188 222.207031 201.234375 222.898438 199.9375 C 223.589844 198.644531 224.214844 197.316406 224.773438 195.960938 C 225.335938 194.601562 225.828125 193.222656 226.25 191.816406 C 226.675781 190.410156 227.03125 188.984375 227.3125 187.542969 C 227.597656 186.101562 227.8125 184.648438 227.953125 183.1875 C 228.09375 181.722656 228.164062 180.257812 228.160156 178.785156 L 228 84.390625 L 225.238281 81.628906 L 225.40625 178.800781 C 225.417969 181.566406 225.15625 184.304688 224.625 187.019531 C 224.09375 189.730469 223.300781 192.367188 222.246094 194.917969 C 221.191406 197.472656 219.894531 199.898438 218.359375 202.195312 C 216.824219 204.488281 215.074219 206.609375 213.117188 208.558594 Z M 183.332031 213.953125 L 183.335938 216.707031 C 184.582031 216.707031 185.820312 216.648438 187.058594 216.527344 C 188.296875 216.40625 189.523438 216.222656 190.742188 215.980469 C 191.960938 215.738281 193.167969 215.4375 194.355469 215.078125 C 195.542969 214.71875 196.714844 214.300781 197.859375 213.828125 C 199.007812 213.351562 200.128906 212.820312 201.226562 212.238281 C 202.320312 211.652344 203.386719 211.015625 204.417969 210.324219 C 205.449219 209.636719 206.445312 208.898438 207.40625 208.109375 C 208.367188 207.324219 209.285156 206.488281 210.164062 205.613281 C 211.039062 204.734375 211.875 203.816406 212.660156 202.855469 C 213.449219 201.894531 214.1875 200.898438 214.875 199.867188 C 215.566406 198.835938 216.203125 197.769531 216.789062 196.675781 C 217.371094 195.578125 217.902344 194.457031 218.378906 193.308594 C 218.851562 192.164062 219.269531 190.992188 219.628906 189.804688 C 219.988281 188.617188 220.289062 187.410156 220.53125 186.191406 C 220.773438 184.972656 220.957031 183.746094 221.078125 182.507812 C 221.199219 181.269531 221.257812 180.03125 221.257812 178.785156 L 221.082031 77.503906 L 218.320312 74.742188 L 218.511719 178.773438 C 218.515625 179.925781 218.457031 181.078125 218.347656 182.226562 C 218.234375 183.375 218.066406 184.511719 217.84375 185.644531 C 217.621094 186.777344 217.339844 187.894531 217.007812 188.996094 C 216.675781 190.101562 216.289062 191.183594 215.847656 192.25 C 215.40625 193.316406 214.917969 194.355469 214.375 195.371094 C 213.832031 196.390625 213.238281 197.375 212.601562 198.335938 C 211.960938 199.292969 211.277344 200.21875 210.546875 201.109375 C 209.816406 202 209.042969 202.851562 208.226562 203.667969 C 207.414062 204.480469 206.558594 205.253906 205.667969 205.984375 C 204.777344 206.714844 203.855469 207.398438 202.894531 208.039062 C 201.9375 208.679688 200.949219 209.269531 199.933594 209.8125 C 198.917969 210.355469 197.875 210.847656 196.8125 211.285156 C 195.746094 211.726562 194.660156 212.113281 193.558594 212.445312 C 192.453125 212.78125 191.335938 213.058594 190.207031 213.28125 C 189.074219 213.507812 187.933594 213.675781 186.785156 213.785156 C 185.636719 213.898438 184.488281 213.953125 183.332031 213.953125 Z M 183.332031 213.953125 " clip-rule="nonzero"/></clipPath><linearGradient x1="-50.374097" gradientTransform="matrix(-0.257512, -0.257512, 0.256616, -0.256616, 195.54649, 249.563137)" y1="-13.398604" x2="370.391068" gradientUnits="userSpaceOnUse" y2="498.672352" id="id15"><stop stop-opacity="1" stop-color="rgb(0%, 18.798828%, 100%)" offset="0"/><stop stop-opacity="1" stop-color="rgb(0%, 18.798828%, 100%)" offset="0.25"/><stop stop-opacity="1" stop-color="rgb(0%, 18.798828%, 100%)" offset="0.3125"/><stop stop-opacity="1" stop-color="rgb(0%, 18.798828%, 100%)" offset="0.320312"/><stop stop-opacity="1" stop-color="rgb(0%, 19.126892%, 100%)" offset="0.324219"/><stop stop-opacity="1" stop-color="rgb(0%, 19.456482%, 100%)" offset="0.328125"/><stop stop-opacity="1" stop-color="rgb(0%, 20.007324%, 100%)" offset="0.332031"/><stop stop-opacity="1" stop-color="rgb(0%, 20.559692%, 100%)" offset="0.335938"/><stop stop-opacity="1" stop-color="rgb(0%, 21.110535%, 100%)" offset="0.339844"/><stop stop-opacity="1" stop-color="rgb(0%, 21.661377%, 100%)" offset="0.34375"/><stop stop-opacity="1" stop-color="rgb(0%, 22.212219%, 100%)" offset="0.347656"/><stop stop-opacity="1" stop-color="rgb(0%, 22.764587%, 100%)" offset="0.351562"/><stop stop-opacity="1" stop-color="rgb(0%, 23.31543%, 100%)" offset="0.355469"/><stop stop-opacity="1" stop-color="rgb(0%, 23.866272%, 100%)" offset="0.359375"/><stop stop-opacity="1" stop-color="rgb(0%, 24.417114%, 100%)" offset="0.363281"/><stop stop-opacity="1" stop-color="rgb(0%, 24.969482%, 100%)" offset="0.367188"/><stop stop-opacity="1" stop-color="rgb(0%, 25.520325%, 100%)" offset="0.371094"/><stop stop-opacity="1" stop-color="rgb(0%, 26.072693%, 100%)" offset="0.375"/><stop stop-opacity="1" stop-color="rgb(0%, 26.623535%, 100%)" offset="0.378906"/><stop stop-opacity="1" stop-color="rgb(0%, 27.174377%, 100%)" offset="0.382812"/><stop stop-opacity="1" stop-color="rgb(0%, 27.72522%, 100%)" offset="0.386719"/><stop stop-opacity="1" stop-color="rgb(0%, 28.277588%, 100%)" offset="0.390625"/><stop stop-opacity="1" stop-color="rgb(0%, 28.82843%, 100%)" offset="0.394531"/><stop stop-opacity="1" stop-color="rgb(0%, 29.379272%, 100%)" offset="0.398437"/><stop stop-opacity="1" stop-color="rgb(0%, 29.930115%, 100%)" offset="0.402344"/><stop stop-opacity="1" stop-color="rgb(0%, 30.482483%, 100%)" offset="0.40625"/><stop stop-opacity="1" stop-color="rgb(0%, 31.033325%, 100%)" offset="0.410156"/><stop stop-opacity="1" stop-color="rgb(0%, 31.585693%, 100%)" offset="0.414062"/><stop stop-opacity="1" stop-color="rgb(0%, 32.136536%, 100%)" offset="0.417969"/><stop stop-opacity="1" stop-color="rgb(0%, 32.687378%, 100%)" offset="0.421875"/><stop stop-opacity="1" stop-color="rgb(0%, 33.23822%, 100%)" offset="0.425781"/><stop stop-opacity="1" stop-color="rgb(0%, 33.790588%, 100%)" offset="0.429688"/><stop stop-opacity="1" stop-color="rgb(0%, 34.341431%, 100%)" offset="0.433594"/><stop stop-opacity="1" stop-color="rgb(0%, 34.892273%, 100%)" offset="0.4375"/><stop stop-opacity="1" stop-color="rgb(0%, 35.443115%, 100%)" offset="0.441406"/><stop stop-opacity="1" stop-color="rgb(0%, 35.995483%, 100%)" offset="0.445312"/><stop stop-opacity="1" stop-color="rgb(0%, 36.546326%, 100%)" offset="0.449219"/><stop stop-opacity="1" stop-color="rgb(0%, 37.098694%, 100%)" offset="0.453125"/><stop stop-opacity="1" stop-color="rgb(0%, 37.649536%, 100%)" offset="0.457031"/><stop stop-opacity="1" stop-color="rgb(0%, 38.200378%, 100%)" offset="0.460938"/><stop stop-opacity="1" stop-color="rgb(0%, 38.751221%, 100%)" offset="0.464844"/><stop stop-opacity="1" stop-color="rgb(0%, 39.303589%, 100%)" offset="0.46875"/><stop stop-opacity="1" stop-color="rgb(0%, 39.854431%, 100%)" offset="0.472656"/><stop stop-opacity="1" stop-color="rgb(0%, 40.405273%, 100%)" offset="0.476562"/><stop stop-opacity="1" stop-color="rgb(0%, 40.956116%, 100%)" offset="0.480469"/><stop stop-opacity="1" stop-color="rgb(0%, 41.508484%, 100%)" offset="0.484375"/><stop stop-opacity="1" stop-color="rgb(0%, 42.059326%, 100%)" offset="0.488281"/><stop stop-opacity="1" stop-color="rgb(0%, 42.611694%, 100%)" offset="0.492187"/><stop stop-opacity="1" stop-color="rgb(0%, 43.162537%, 100%)" offset="0.496094"/><stop stop-opacity="1" stop-color="rgb(0%, 43.713379%, 100%)" offset="0.5"/><stop stop-opacity="1" stop-color="rgb(0%, 44.264221%, 100%)" offset="0.503906"/><stop stop-opacity="1" stop-color="rgb(0%, 44.816589%, 100%)" offset="0.507812"/><stop stop-opacity="1" stop-color="rgb(0%, 45.367432%, 100%)" offset="0.511719"/><stop stop-opacity="1" stop-color="rgb(0%, 45.918274%, 100%)" offset="0.515625"/><stop stop-opacity="1" stop-color="rgb(0%, 46.469116%, 100%)" offset="0.519531"/><stop stop-opacity="1" stop-color="rgb(0%, 47.021484%, 100%)" offset="0.523438"/><stop stop-opacity="1" stop-color="rgb(0%, 47.572327%, 100%)" offset="0.527344"/><stop stop-opacity="1" stop-color="rgb(0%, 48.124695%, 100%)" offset="0.53125"/><stop stop-opacity="1" stop-color="rgb(0%, 48.675537%, 100%)" offset="0.535156"/><stop stop-opacity="1" stop-color="rgb(0%, 49.226379%, 100%)" offset="0.539062"/><stop stop-opacity="1" stop-color="rgb(0%, 49.777222%, 100%)" offset="0.542969"/><stop stop-opacity="1" stop-color="rgb(0%, 50.32959%, 100%)" offset="0.546875"/><stop stop-opacity="1" stop-color="rgb(0%, 50.880432%, 100%)" offset="0.550781"/><stop stop-opacity="1" stop-color="rgb(0%, 51.4328%, 100%)" offset="0.554688"/><stop stop-opacity="1" stop-color="rgb(0%, 51.983643%, 100%)" offset="0.558594"/><stop stop-opacity="1" stop-color="rgb(0%, 52.534485%, 100%)" offset="0.5625"/><stop stop-opacity="1" stop-color="rgb(0%, 53.085327%, 100%)" offset="0.566406"/><stop stop-opacity="1" stop-color="rgb(0%, 53.637695%, 100%)" offset="0.570312"/><stop stop-opacity="1" stop-color="rgb(0%, 54.188538%, 100%)" offset="0.574219"/><stop stop-opacity="1" stop-color="rgb(0%, 54.73938%, 100%)" offset="0.578125"/><stop stop-opacity="1" stop-color="rgb(0%, 55.290222%, 100%)" offset="0.582031"/><stop stop-opacity="1" stop-color="rgb(0%, 55.84259%, 100%)" offset="0.585937"/><stop stop-opacity="1" stop-color="rgb(0%, 56.393433%, 100%)" offset="0.589844"/><stop stop-opacity="1" stop-color="rgb(0%, 56.945801%, 100%)" offset="0.59375"/><stop stop-opacity="1" stop-color="rgb(0%, 57.496643%, 100%)" offset="0.597656"/><stop stop-opacity="1" stop-color="rgb(0%, 58.047485%, 100%)" offset="0.601562"/><stop stop-opacity="1" stop-color="rgb(0%, 58.598328%, 100%)" offset="0.605469"/><stop stop-opacity="1" stop-color="rgb(0%, 59.150696%, 100%)" offset="0.609375"/><stop stop-opacity="1" stop-color="rgb(0%, 59.701538%, 100%)" offset="0.613281"/><stop stop-opacity="1" stop-color="rgb(0%, 60.25238%, 100%)" offset="0.617188"/><stop stop-opacity="1" stop-color="rgb(0%, 60.803223%, 100%)" offset="0.621094"/><stop stop-opacity="1" stop-color="rgb(0%, 61.355591%, 100%)" offset="0.625"/><stop stop-opacity="1" stop-color="rgb(0%, 61.906433%, 100%)" offset="0.628906"/><stop stop-opacity="1" stop-color="rgb(0%, 62.458801%, 100%)" offset="0.632812"/><stop stop-opacity="1" stop-color="rgb(0%, 63.009644%, 100%)" offset="0.636719"/><stop stop-opacity="1" stop-color="rgb(0%, 63.560486%, 100%)" offset="0.640625"/><stop stop-opacity="1" stop-color="rgb(0%, 64.111328%, 100%)" offset="0.644531"/><stop stop-opacity="1" stop-color="rgb(0%, 64.663696%, 100%)" offset="0.648438"/><stop stop-opacity="1" stop-color="rgb(0%, 65.214539%, 100%)" offset="0.652344"/><stop stop-opacity="1" stop-color="rgb(0%, 65.765381%, 100%)" offset="0.65625"/><stop stop-opacity="1" stop-color="rgb(0%, 66.316223%, 100%)" offset="0.660156"/><stop stop-opacity="1" stop-color="rgb(0%, 66.868591%, 100%)" offset="0.664062"/><stop stop-opacity="1" stop-color="rgb(0%, 67.419434%, 100%)" offset="0.667969"/><stop stop-opacity="1" stop-color="rgb(0%, 67.971802%, 100%)" offset="0.671875"/><stop stop-opacity="1" stop-color="rgb(0%, 68.522644%, 100%)" offset="0.675781"/><stop stop-opacity="1" stop-color="rgb(0%, 69.073486%, 100%)" offset="0.679687"/><stop stop-opacity="1" stop-color="rgb(0%, 69.624329%, 100%)" offset="0.683594"/><stop stop-opacity="1" stop-color="rgb(0%, 70.176697%, 100%)" offset="0.6875"/><stop stop-opacity="1" stop-color="rgb(0%, 70.727539%, 100%)" offset="0.691406"/><stop stop-opacity="1" stop-color="rgb(0%, 71.278381%, 100%)" offset="0.695312"/><stop stop-opacity="1" stop-color="rgb(0%, 71.829224%, 100%)" offset="0.699219"/><stop stop-opacity="1" stop-color="rgb(0%, 72.381592%, 100%)" offset="0.703125"/><stop stop-opacity="1" stop-color="rgb(0%, 72.932434%, 100%)" offset="0.707031"/><stop stop-opacity="1" stop-color="rgb(0%, 73.484802%, 100%)" offset="0.710938"/><stop stop-opacity="1" stop-color="rgb(0%, 74.035645%, 100%)" offset="0.714844"/><stop stop-opacity="1" stop-color="rgb(0%, 74.586487%, 100%)" offset="0.71875"/><stop stop-opacity="1" stop-color="rgb(0%, 75.137329%, 100%)" offset="0.722656"/><stop stop-opacity="1" stop-color="rgb(0%, 75.689697%, 100%)" offset="0.726562"/><stop stop-opacity="1" stop-color="rgb(0%, 75.894165%, 100%)" offset="0.730469"/><stop stop-opacity="1" stop-color="rgb(0%, 76.098633%, 100%)" offset="0.734375"/><stop stop-opacity="1" stop-color="rgb(0%, 76.098633%, 100%)" offset="0.75"/><stop stop-opacity="1" stop-color="rgb(0%, 76.098633%, 100%)" offset="1"/></linearGradient></defs><g clip-path="url(#id1)"><g clip-path="url(#id2)"><g clip-path="url(#id3)"><g clip-path="url(#id4)"><path fill="url(#id5)" d="M 124.566406 119.730469 L 124.8125 237.433594 L 199.402344 237.589844 L 199.15625 119.886719 Z M 124.566406 119.730469 " fill-rule="nonzero"/></g></g></g></g><g clip-path="url(#id6)"><g clip-path="url(#id7)"><g clip-path="url(#id8)"><g clip-path="url(#id9)"><path fill="url(#id10)" d="M 239.148438 119.855469 L 239.101562 164.214844 L 301.550781 164.152344 L 301.597656 119.792969 Z M 239.148438 119.855469 " fill-rule="nonzero"/></g></g></g></g><g clip-path="url(#id11)"><g clip-path="url(#id12)"><g clip-path="url(#id13)"><g clip-path="url(#id14)"><path fill="url(#id15)" d="M 212.621094 266.722656 L 333.648438 145.699219 L 212.621094 24.671875 L 91.59375 145.699219 Z M 212.621094 266.722656 " fill-rule="nonzero"/></g></g></g></g><g fill="#ffffff" fill-opacity="1"><g transform="translate(78.841406, 283.018825)"><g><path d="M 2.949219 0 L 13.347656 0 C 22.929688 0 29.316406 -5.527344 29.316406 -14.492188 C 29.316406 -23.460938 22.886719 -28.988281 13.347656 -28.988281 L 2.949219 -28.988281 Z M 7.941406 -4.011719 L 7.941406 -25.015625 L 13.347656 -25.015625 C 19.734375 -25.015625 24.15625 -21.042969 24.15625 -14.492188 C 24.15625 -7.941406 19.816406 -4.011719 13.347656 -4.011719 Z M 7.941406 -4.011719 "/></g></g></g><g fill="#ffffff" fill-opacity="1"><g transform="translate(109.950897, 283.018825)"><g><path d="M 12.9375 0.65625 C 17.933594 0.65625 22.273438 -2.046875 23.417969 -6.058594 L 19.324219 -6.714844 C 18.464844 -4.378906 15.96875 -2.703125 13.140625 -2.703125 C 9.292969 -2.703125 6.550781 -5.28125 6.222656 -9.128906 L 24.074219 -9.128906 L 24.113281 -10.398438 C 24.113281 -16.992188 19.613281 -21.453125 12.980469 -21.453125 C 6.222656 -21.453125 1.472656 -17.03125 1.472656 -10.441406 C 1.472656 -3.808594 6.183594 0.65625 12.9375 0.65625 Z M 6.183594 -11.832031 C 6.550781 -15.558594 9.171875 -18.136719 12.898438 -18.136719 C 16.5 -18.136719 19.160156 -15.433594 19.40625 -11.832031 Z M 6.183594 -11.832031 "/></g></g></g><g fill="#ffffff" fill-opacity="1"><g transform="translate(135.493433, 283.018825)"><g><path d="M 8.476562 0 L 15.351562 0 L 23.171875 -20.796875 L 18.179688 -20.796875 L 12.078125 -3.890625 L 11.75 -3.890625 L 5.648438 -20.796875 L 0.65625 -20.796875 Z M 8.476562 0 "/></g></g></g><g fill="#ffffff" fill-opacity="1"><g transform="translate(159.357693, 283.018825)"><g><path d="M 11.011719 0.738281 C 16.621094 0.738281 20.429688 -1.84375 20.429688 -6.019531 C 20.429688 -10.972656 15.84375 -11.710938 11.957031 -12.242188 C 8.882812 -12.652344 6.058594 -12.9375 6.058594 -15.558594 C 6.058594 -17.320312 7.902344 -18.546875 10.523438 -18.546875 C 13.511719 -18.546875 15.515625 -16.992188 15.515625 -14.617188 L 19.691406 -14.617188 C 19.691406 -18.832031 15.886719 -21.535156 10.523438 -21.535156 C 5.28125 -21.535156 1.761719 -18.996094 1.761719 -15.109375 C 1.761719 -9.90625 6.511719 -9.375 10.234375 -8.925781 C 13.140625 -8.558594 15.804688 -8.3125 15.804688 -5.484375 C 15.804688 -3.519531 13.796875 -2.25 11.054688 -2.25 C 7.738281 -2.25 5.484375 -4.054688 5.445312 -6.632812 L 1.433594 -6.632812 C 1.433594 -2.210938 5.242188 0.738281 11.011719 0.738281 Z M 11.011719 0.738281 "/></g></g></g><g fill="#ffffff" fill-opacity="1"><g transform="translate(181.25714, 283.018825)"><g><path d="M 12.734375 0.65625 C 19.488281 0.65625 24.074219 -3.726562 24.074219 -10.398438 C 24.074219 -17.074219 19.488281 -21.453125 12.734375 -21.453125 C 5.976562 -21.453125 1.433594 -17.113281 1.433594 -10.398438 C 1.433594 -3.726562 6.019531 0.65625 12.734375 0.65625 Z M 12.734375 -3.316406 C 8.84375 -3.316406 6.058594 -6.265625 6.058594 -10.398438 C 6.058594 -14.535156 8.84375 -17.484375 12.734375 -17.484375 C 16.664062 -17.484375 19.449219 -14.535156 19.449219 -10.398438 C 19.449219 -6.265625 16.664062 -3.316406 12.734375 -3.316406 Z M 12.734375 -3.316406 "/></g></g></g><g fill="#ffffff" fill-opacity="1"><g transform="translate(206.717806, 283.018825)"><g><path d="M 12.691406 0.65625 C 18.054688 0.65625 22.230469 -2.332031 23.050781 -6.960938 L 18.75 -7.535156 C 18.097656 -4.996094 15.597656 -3.152344 12.734375 -3.152344 C 8.882812 -3.152344 6.101562 -6.183594 6.101562 -10.398438 C 6.101562 -14.617188 8.882812 -17.644531 12.734375 -17.644531 C 15.558594 -17.644531 18.097656 -15.761719 18.75 -13.101562 L 23.050781 -13.675781 C 22.273438 -18.425781 18.054688 -21.453125 12.691406 -21.453125 C 6.058594 -21.453125 1.472656 -17.03125 1.472656 -10.398438 C 1.433594 -3.847656 6.140625 0.65625 12.691406 0.65625 Z M 12.691406 0.65625 "/></g></g></g><g fill="#ffffff" fill-opacity="1"><g transform="translate(231.237, 283.018825)"><g><path d="M 5.160156 -24.15625 C 6.835938 -24.15625 8.066406 -25.300781 8.066406 -26.941406 C 8.066406 -28.578125 6.835938 -29.722656 5.160156 -29.722656 C 3.519531 -29.722656 2.292969 -28.578125 2.292969 -26.941406 C 2.292969 -25.300781 3.519531 -24.15625 5.160156 -24.15625 Z M 2.824219 0 L 7.492188 0 L 7.492188 -20.796875 L 2.824219 -20.796875 Z M 2.824219 0 "/></g></g></g><g fill="#ffffff" fill-opacity="1"><g transform="translate(241.552257, 283.018825)"><g><path d="M 12.9375 0.65625 C 17.933594 0.65625 22.273438 -2.046875 23.417969 -6.058594 L 19.324219 -6.714844 C 18.464844 -4.378906 15.96875 -2.703125 13.140625 -2.703125 C 9.292969 -2.703125 6.550781 -5.28125 6.222656 -9.128906 L 24.074219 -9.128906 L 24.113281 -10.398438 C 24.113281 -16.992188 19.613281 -21.453125 12.980469 -21.453125 C 6.222656 -21.453125 1.472656 -17.03125 1.472656 -10.441406 C 1.472656 -3.808594 6.183594 0.65625 12.9375 0.65625 Z M 6.183594 -11.832031 C 6.550781 -15.558594 9.171875 -18.136719 12.898438 -18.136719 C 16.5 -18.136719 19.160156 -15.433594 19.40625 -11.832031 Z M 6.183594 -11.832031 "/></g></g></g><g fill="#ffffff" fill-opacity="1"><g transform="translate(267.094793, 283.018825)"><g><path d="M 10.152344 0.449219 C 11.339844 0.449219 12.898438 0.246094 13.960938 -0.121094 L 13.960938 -3.519531 C 13.222656 -3.316406 12.242188 -3.195312 11.503906 -3.195312 C 9.785156 -3.195312 8.679688 -4.460938 8.679688 -6.347656 L 8.640625 -17.359375 L 13.675781 -17.359375 L 13.675781 -20.796875 L 8.640625 -20.796875 L 8.679688 -27.1875 L 4.914062 -27.1875 L 4.175781 -20.796875 L 0.820312 -20.796875 L 0.820312 -17.359375 L 4.011719 -17.359375 L 4.011719 -6.183594 C 4.011719 -2.210938 6.429688 0.449219 10.152344 0.449219 Z M 10.152344 0.449219 "/></g></g></g><g fill="#ffffff" fill-opacity="1"><g transform="translate(282.158341, 283.018825)"><g><path d="M 6.347656 9.335938 C 10.359375 9.335938 12.652344 6.265625 14.863281 0.53125 L 23.171875 -20.796875 L 18.382812 -20.796875 L 12.816406 -5.9375 L 12.445312 -5.9375 L 5.730469 -20.796875 L 0.695312 -20.796875 L 10.808594 0.0820312 C 9.5 3.234375 8.105469 5.527344 5.527344 5.527344 C 4.625 5.527344 3.4375 5.324219 2.578125 5.035156 L 2.578125 8.761719 C 3.519531 9.089844 5.117188 9.335938 6.347656 9.335938 Z M 6.347656 9.335938 "/></g></g></g></svg>